<?xml version="1.0" encoding="UTF-8" standalone="no"?>
<svg
   viewBox="0 0 1920 1080"
   version="1.1"
   id="svg187"
   sodipodi:docname="6.svg"
   inkscape:version="1.1.2 (b8e25be833, 2022-02-05)"
   xmlns:inkscape="http://www.inkscape.org/namespaces/inkscape"
   xmlns:sodipodi="http://sodipodi.sourceforge.net/DTD/sodipodi-0.dtd"
   xmlns:xlink="http://www.w3.org/1999/xlink"
   xmlns="http://www.w3.org/2000/svg"
   xmlns:svg="http://www.w3.org/2000/svg">
  <sodipodi:namedview
     id="namedview189"
     pagecolor="#ffffff"
     bordercolor="#666666"
     borderopacity="1.0"
     inkscape:pageshadow="2"
     inkscape:pageopacity="0.0"
     inkscape:pagecheckerboard="0"
     showgrid="false"
     inkscape:zoom="0.46109254"
     inkscape:cx="450.01812"
     inkscape:cy="724.36652"
     inkscape:window-width="2400"
     inkscape:window-height="1284"
     inkscape:window-x="2391"
     inkscape:window-y="-9"
     inkscape:window-maximized="1"
     inkscape:current-layer="svg187" />
  <defs
     id="defs40">
    <inkscape:perspective
       sodipodi:type="inkscape:persp3d"
       inkscape:vp_x="0 : 540 : 1"
       inkscape:vp_y="0 : 1000 : 0"
       inkscape:vp_z="1920 : 540 : 1"
       inkscape:persp3d-origin="960 : 360 : 1"
       id="perspective776" />
    <style
       id="style2">.cls-1{fill:blue;}.cls-2{fill:url(#linear-gradient);}.cls-3{fill:url(#linear-gradient-2);}.cls-4{fill:url(#linear-gradient-3);}.cls-5{fill:url(#radial-gradient);}.cls-6{fill:url(#radial-gradient-2);}.cls-7{fill:#fff;}.cls-8{fill:url(#radial-gradient-3);}.cls-9{fill:url(#radial-gradient-4);}.cls-10{fill:#06455b;}.cls-11{fill:red;}.cls-12{fill:url(#linear-gradient-4);}.cls-13{fill:url(#linear-gradient-5);}.cls-14{fill:url(#radial-gradient-5);}.cls-15{fill:#ccc;}.cls-16{fill:none;stroke:#000;stroke-miterlimit:10;stroke-width:0.75px;}</style>
    <linearGradient
       id="linear-gradient"
       x1="882.49"
       y1="774.22"
       x2="1181.36"
       y2="774.22"
       gradientUnits="userSpaceOnUse">
      <stop
         offset="0"
         stop-color="#fab149"
         id="stop4" />
      <stop
         offset="0.43"
         stop-color="#f68d39"
         id="stop6" />
      <stop
         offset="1"
         stop-color="#f26025"
         id="stop8" />
    </linearGradient>
    <linearGradient
       id="linear-gradient-2"
       x1="480.76"
       y1="293.66"
       x2="1030.7"
       y2="293.66"
       xlink:href="#linear-gradient" />
    <linearGradient
       id="linear-gradient-3"
       x1="1173.94"
       y1="460.6"
       x2="1706.71"
       y2="460.6"
       xlink:href="#linear-gradient" />
    <radialGradient
       id="radial-gradient"
       cx="754.09"
       cy="542.17"
       r="375.41"
       gradientUnits="userSpaceOnUse">
      <stop
         offset="0"
         stop-color="#fbbe66"
         id="stop13" />
      <stop
         offset="0.86"
         stop-color="#fab149"
         id="stop15" />
    </radialGradient>
    <radialGradient
       id="radial-gradient-2"
       cx="532.79"
       cy="535.02"
       r="144.96"
       gradientUnits="userSpaceOnUse">
      <stop
         offset="0"
         stop-color="#fab149"
         id="stop18" />
      <stop
         offset="0.2"
         stop-color="#faad47"
         id="stop20" />
      <stop
         offset="0.38"
         stop-color="#f9a242"
         id="stop22" />
      <stop
         offset="0.56"
         stop-color="#f78f3a"
         id="stop24" />
      <stop
         offset="0.74"
         stop-color="#f4742e"
         id="stop26" />
      <stop
         offset="0.85"
         stop-color="#f26025"
         id="stop28" />
    </radialGradient>
    <radialGradient
       id="radial-gradient-3"
       cx="426.09"
       cy="515.89"
       r="7.18"
       gradientUnits="userSpaceOnUse">
      <stop
         offset="0"
         stop-color="#fff"
         id="stop31" />
      <stop
         offset="1"
         id="stop33" />
    </radialGradient>
    <radialGradient
       id="radial-gradient-4"
       cx="623.87"
       cy="533.49"
       r="164.82"
       xlink:href="#radial-gradient-2" />
    <linearGradient
       id="linear-gradient-4"
       x1="714.88"
       y1="608.69"
       x2="1099.59"
       y2="608.69"
       xlink:href="#radial-gradient-2" />
    <linearGradient
       id="linear-gradient-5"
       x1="479.39"
       y1="841.57"
       x2="744.66"
       y2="841.57"
       xlink:href="#linear-gradient" />
    <radialGradient
       id="radial-gradient-5"
       cx="1127.58"
       cy="578.78"
       r="63.06"
       xlink:href="#radial-gradient-2" />
  </defs>
  <g
     id="Layer_3"
     data-name="Layer 3"
     style="fill:#ffd5f6"
     transform="translate(0.21261596,-0.66686213)">
    <rect
       class="cls-1"
       width="1920"
       height="1080"
       id="rect42"
       style="fill:#ffd5f6"
       x="0"
       y="0" />
  </g>
  <g
     sodipodi:type="inkscape:box3d"
     id="g778"
     style="fill:#cccccc"
     inkscape:perspectiveID="#perspective776"
     inkscape:corner0="2.2774869 : 0.84910994 : 0 : 1"
     inkscape:corner7="2.2102564 : 0.81569231 : 0.25 : 1">
    <path
       sodipodi:type="inkscape:box3dside"
       id="path790"
       style="fill:#e9e9ff;fill-rule:evenodd;stroke:none;stroke-linejoin:round"
       inkscape:box3dsidetype="11"
       d="m 0.21261596,1079.3244 0.004131,-0 v 0.01 l -0.004131,0 z"
       points="0.21674694,1079.321 0.21674694,1079.3299 0.21261596,1079.3331 0.21261596,1079.3244 " />
    <path
       sodipodi:type="inkscape:box3dside"
       id="path780"
       style="fill:#353564;fill-rule:evenodd;stroke:none;stroke-linejoin:round"
       inkscape:box3dsidetype="6"
       d="m 0.15255591,1079.311 v 0.01 l 0.0600601,0.013 v -0.01 z"
       points="0.15255591,1079.3204 0.21261596,1079.3331 0.21261596,1079.3244 0.15255591,1079.311 " />
    <path
       sodipodi:type="inkscape:box3dside"
       id="path782"
       style="fill:#4d4d9f;fill-rule:evenodd;stroke:none;stroke-linejoin:round"
       inkscape:box3dsidetype="5"
       d="m 0.15255591,1079.311 0.003195,-0 0.0609961,0.014 -0.004131,0 z"
       points="0.1557508,1079.307 0.21674694,1079.321 0.21261596,1079.3244 0.15255591,1079.311 " />
    <path
       sodipodi:type="inkscape:box3dside"
       id="path788"
       style="fill:#afafde;fill-rule:evenodd;stroke:none;stroke-linejoin:round"
       inkscape:box3dsidetype="13"
       d="m 0.15255591,1079.3204 0.003195,-0 0.0609961,0.013 -0.004131,0 z"
       points="0.1557508,1079.3166 0.21674694,1079.3299 0.21261596,1079.3331 0.15255591,1079.3204 " />
    <path
       sodipodi:type="inkscape:box3dside"
       id="path786"
       style="fill:#d7d7ff;fill-rule:evenodd;stroke:none;stroke-linejoin:round"
       inkscape:box3dsidetype="14"
       d="m 0.1557508,1079.307 v 0.01 l 0.0609961,0.013 v -0.01 z"
       points="0.1557508,1079.3166 0.21674694,1079.3299 0.21674694,1079.321 0.1557508,1079.307 " />
    <path
       sodipodi:type="inkscape:box3dside"
       id="path784"
       style="fill:#8686bf;fill-rule:evenodd;stroke:none;stroke-linejoin:round"
       inkscape:box3dsidetype="3"
       d="m 0.15255591,1079.311 0.003195,-0 v 0.01 l -0.003195,0 z"
       points="0.1557508,1079.307 0.1557508,1079.3166 0.15255591,1079.3204 0.15255591,1079.311 " />
  </g>
  <g
     transform="matrix(0.04187171,0,0,-0.04277205,221.64135,1107.3109)"
     fill="#000000"
     stroke="none"
     id="g504"
     style="fill:#ff00cc">
    <path
       d="m 1153,23898 c -6,-7 -10,-69 -9,-139 l 2,-126 77,-83 c 42,-46 92,-94 112,-107 19,-13 35,-28 35,-33 0,-17 64,-78 85,-82 11,-2 19,-11 19,-21 -1,-9 2,-14 7,-11 5,3 13,-5 18,-18 10,-26 138,-166 289,-314 56,-56 102,-106 102,-111 0,-6 36,-48 80,-94 44,-46 117,-124 162,-173 109,-117 126,-134 173,-177 44,-39 128,-128 250,-264 44,-50 118,-128 164,-175 47,-47 111,-116 142,-155 31,-38 111,-126 177,-195 230,-238 305,-318 864,-915 309,-330 594,-634 633,-675 39,-41 127,-133 195,-205 67,-71 142,-149 166,-173 24,-24 44,-45 44,-48 0,-5 3661,-3898 3741,-3977 32,-32 63,-56 69,-52 10,6 55,-20 55,-33 0,-18 36,-53 113,-107 45,-33 85,-69 88,-80 4,-11 14,-29 24,-40 9,-11 32,-51 51,-89 31,-65 98,-135 121,-128 5,1 7,-2 4,-7 -4,-5 13,-29 36,-53 24,-23 56,-60 72,-81 15,-21 39,-43 52,-49 13,-6 24,-17 24,-24 0,-6 7,-14 15,-18 8,-3 15,-12 15,-19 0,-8 8,-21 17,-28 14,-12 16,-12 9,1 -4,8 8,-3 26,-24 18,-22 58,-66 88,-98 30,-31 77,-82 104,-112 27,-30 53,-53 57,-51 9,6 34,-24 26,-31 -3,-3 27,-40 67,-82 40,-43 119,-126 176,-187 57,-60 110,-115 119,-121 23,-16 69,-26 130,-30 67,-3 103,-20 99,-48 -2,-14 3,-22 17,-24 11,-2 52,-35 90,-72 39,-38 98,-96 133,-130 34,-33 62,-66 62,-71 0,-13 98,-109 111,-109 5,0 16,-14 24,-30 9,-17 39,-52 68,-78 64,-59 120,-116 172,-177 22,-26 57,-63 78,-83 20,-19 37,-41 37,-48 0,-6 16,-25 36,-41 20,-15 52,-46 73,-68 20,-22 52,-55 71,-75 19,-19 52,-56 73,-82 21,-25 53,-54 72,-63 23,-10 35,-23 35,-36 0,-11 12,-27 29,-36 15,-9 41,-37 57,-62 29,-46 130,-151 146,-151 5,0 14,-11 20,-25 6,-13 18,-27 27,-30 9,-3 49,-46 90,-95 40,-50 77,-90 81,-90 5,0 31,-21 58,-47 28,-27 64,-59 81,-73 17,-14 31,-30 31,-35 0,-6 8,-17 18,-26 9,-8 35,-31 58,-52 35,-32 59,-43 97,-46 5,-1 6,-15 2,-31 -6,-28 -1,-37 53,-93 33,-34 76,-81 96,-105 20,-24 57,-65 83,-91 27,-26 66,-67 88,-92 23,-24 69,-69 104,-99 34,-30 75,-76 92,-102 16,-27 32,-48 37,-48 8,0 127,-113 153,-145 9,-11 27,-30 40,-41 13,-12 33,-34 44,-48 11,-15 26,-33 33,-41 7,-8 13,-17 12,-20 -1,-18 3,-25 30,-54 17,-17 37,-31 45,-31 8,0 26,-17 42,-37 15,-21 51,-61 80,-90 29,-28 53,-57 53,-65 0,-7 25,-31 56,-53 31,-23 76,-69 102,-106 26,-36 77,-91 114,-122 36,-31 72,-71 80,-88 8,-20 29,-39 61,-55 26,-13 47,-30 47,-37 0,-7 8,-20 18,-28 9,-9 39,-39 65,-68 26,-28 54,-51 62,-51 8,0 15,-7 15,-15 0,-8 8,-16 18,-17 9,0 23,-2 31,-2 26,-2 50,-91 44,-171 -4,-71 -3,-76 23,-100 19,-17 25,-31 21,-46 -3,-12 0,-34 8,-48 18,-35 71,-85 83,-77 5,3 32,-12 58,-33 27,-21 54,-40 59,-41 6,-1 9,-8 7,-15 -1,-8 25,-40 59,-72 113,-106 119,-112 119,-123 0,-6 5,-8 10,-5 6,3 13,0 16,-8 3,-8 30,-40 60,-71 30,-31 54,-63 54,-71 0,-8 6,-15 13,-15 7,0 18,-14 24,-31 7,-17 16,-28 21,-25 5,3 22,-11 38,-31 16,-21 49,-55 73,-78 24,-22 51,-49 60,-60 20,-24 91,-94 124,-120 14,-11 23,-23 21,-26 -2,-4 9,-20 24,-35 16,-16 39,-45 52,-64 13,-19 44,-54 69,-78 25,-23 45,-49 43,-56 -1,-8 26,-33 60,-56 35,-24 64,-44 66,-45 3,-3 9,-28 11,-47 1,-4 11,-8 24,-10 12,-2 21,-8 20,-14 -1,-6 11,-24 27,-39 17,-16 30,-35 30,-42 0,-7 6,-13 13,-13 14,0 97,-84 97,-98 0,-5 7,-12 15,-16 8,-3 20,-17 25,-31 5,-14 17,-28 26,-32 24,-9 64,-52 61,-65 -1,-7 3,-12 9,-13 11,0 74,-56 74,-66 0,-3 32,-40 72,-82 39,-43 77,-88 83,-100 6,-12 18,-21 27,-19 9,1 19,-6 23,-17 3,-10 13,-22 21,-25 8,-3 22,-22 30,-41 8,-19 19,-35 24,-35 6,0 10,-6 10,-14 0,-8 9,-21 20,-29 43,-30 140,-122 140,-133 0,-6 10,-14 21,-17 15,-4 20,-11 15,-22 -4,-11 2,-19 20,-25 14,-6 28,-19 31,-30 3,-11 11,-20 17,-20 15,0 66,-52 66,-66 0,-6 20,-28 45,-50 25,-21 45,-43 45,-49 1,-5 14,-21 30,-35 17,-13 30,-30 30,-36 0,-7 5,-16 12,-20 7,-5 8,-3 3,7 -8,12 -6,12 8,0 9,-7 15,-17 12,-21 -3,-5 8,-20 25,-33 16,-14 30,-29 30,-32 0,-11 90,-100 101,-100 5,0 10,-4 10,-10 1,-5 10,-16 20,-23 11,-7 19,-18 19,-24 0,-5 32,-42 70,-81 39,-40 101,-105 138,-145 72,-78 89,-86 203,-98 l 57,-6 143,139 c 79,76 196,190 259,254 63,63 264,259 445,435 349,337 554,536 825,801 91,88 239,233 330,320 726,700 860,835 860,861 0,6 3,12 8,14 18,8 51,67 41,74 -7,4 -4,14 8,28 10,11 25,34 33,50 8,15 36,44 63,65 94,70 115,91 120,120 3,16 18,41 32,56 14,16 25,36 25,45 0,10 6,23 14,30 8,6 16,21 18,33 2,15 14,24 43,32 55,14 78,29 95,59 7,14 22,26 33,26 26,0 128,82 151,122 36,60 97,139 114,145 22,9 113,76 131,96 7,10 20,17 28,17 7,0 16,8 20,18 3,9 26,38 52,64 25,26 73,77 106,114 33,37 121,129 195,204 74,76 142,149 150,164 7,15 34,37 59,49 24,13 49,31 55,42 6,11 17,24 24,28 6,4 12,14 12,22 0,8 25,33 55,56 30,23 55,45 55,50 0,5 18,20 40,34 22,14 40,31 40,38 0,16 40,55 72,71 13,6 29,24 36,39 7,15 17,27 22,27 11,0 130,119 130,130 0,4 18,20 40,35 22,16 48,43 56,61 9,19 21,31 26,28 5,-3 12,3 15,15 3,11 9,18 14,15 5,-3 13,5 18,18 4,13 10,21 12,19 10,-11 47,13 69,45 14,20 35,47 48,61 12,14 22,29 22,34 0,10 106,111 133,126 12,7 32,12 45,13 12,0 26,8 29,18 4,9 11,22 15,27 5,6 21,31 37,56 17,27 43,52 63,62 19,9 54,38 77,64 23,27 46,53 51,58 16,17 39,35 46,35 15,0 87,85 103,121 21,46 44,69 70,69 11,0 24,6 28,13 4,8 16,17 26,20 11,4 21,16 24,27 3,10 16,26 29,35 13,8 24,22 24,30 0,8 7,15 15,15 8,0 15,4 15,9 0,5 13,12 30,16 16,3 32,15 35,25 3,10 42,56 85,102 44,45 80,89 80,95 0,7 7,13 15,13 8,0 18,14 23,32 7,27 15,34 54,44 25,6 52,15 59,20 8,5 23,10 34,10 11,1 25,2 32,3 13,1 50,50 55,72 2,8 11,20 21,27 9,7 17,19 17,27 0,19 47,65 66,65 8,0 12,5 9,10 -3,5 1,10 10,10 8,0 23,9 33,21 9,11 34,29 55,40 27,14 39,28 44,49 3,17 8,30 12,30 3,0 12,12 19,28 6,15 30,40 52,55 22,16 43,38 46,50 6,22 65,67 88,67 21,0 102,38 116,55 7,8 18,15 24,15 16,0 66,24 66,31 0,4 20,12 44,19 38,10 116,82 632,583 324,314 591,575 593,580 2,5 21,27 42,50 21,23 37,48 34,54 -2,7 2,16 9,20 7,5 21,20 31,36 9,15 22,27 28,27 6,0 33,24 61,53 51,52 75,72 112,93 10,6 25,25 33,42 8,18 19,32 24,32 12,0 67,56 67,69 0,6 9,16 20,23 11,7 20,17 20,22 0,18 52,65 66,59 8,-3 14,0 14,6 0,6 7,11 16,11 8,0 13,4 10,9 -6,8 19,35 87,92 20,17 45,44 54,59 9,16 27,34 39,41 13,6 21,16 18,21 -3,4 -1,8 3,8 5,0 30,20 56,45 27,25 52,45 58,45 5,0 9,6 9,13 0,7 12,20 28,30 15,9 46,33 69,54 67,61 364,346 382,367 19,23 83,87 177,178 38,37 85,85 104,106 19,22 40,37 47,35 6,-2 24,15 41,39 16,24 52,64 80,91 29,26 56,56 62,67 6,11 17,20 24,20 8,0 39,25 70,55 31,31 56,53 56,50 0,-3 23,21 51,52 47,52 104,109 141,139 27,23 75,83 70,89 -3,3 0,5 7,5 7,0 71,57 142,128 70,70 163,159 206,197 109,99 143,135 143,149 0,8 25,33 55,56 30,23 55,46 55,51 0,5 5,9 11,9 10,0 133,122 194,192 12,12 32,32 45,44 14,11 39,36 55,55 17,19 48,47 70,64 22,16 53,45 70,65 52,61 228,235 290,288 95,80 135,118 135,129 0,11 42,53 54,53 4,0 21,15 38,33 17,17 27,25 23,17 -11,-22 4,-5 64,68 29,34 58,62 66,62 8,0 14,4 13,8 -2,4 15,24 37,43 22,18 49,45 60,58 34,42 110,111 120,111 10,0 92,77 165,155 19,20 47,43 61,51 15,7 37,28 48,46 12,18 39,47 60,63 22,17 42,40 45,53 4,13 14,22 25,22 12,0 23,11 30,31 6,17 15,28 20,25 5,-3 33,19 62,50 30,31 85,86 123,123 37,36 103,100 145,141 90,87 329,318 493,475 63,61 128,121 144,135 16,14 42,42 58,62 17,20 38,39 49,42 10,2 16,9 12,15 -3,6 -1,11 6,11 14,0 109,96 109,110 0,6 4,10 9,10 5,0 175,164 378,364 202,200 405,399 449,442 45,44 80,82 77,87 -2,4 6,11 19,16 13,5 158,142 323,306 165,163 312,305 327,316 15,11 100,92 191,182 196,194 253,247 267,247 6,0 13,7 16,15 4,8 12,15 20,15 8,0 14,5 14,11 0,11 151,160 215,212 19,16 32,34 28,40 -4,6 0,8 10,4 12,-5 17,-1 17,13 0,14 5,18 18,13 9,-3 14,-3 11,0 -7,8 184,207 199,207 7,0 12,6 12,13 0,9 2,9 8,-1 7,-9 13,-8 27,8 10,11 24,20 31,20 7,0 47,33 89,73 71,66 77,75 79,115 2,30 -3,47 -16,59 -10,9 -18,24 -18,34 0,10 -4,20 -10,24 -5,3 -7,12 -4,19 3,8 -10,25 -31,41 -35,28 -36,28 -223,30 -136,3 -204,-1 -250,-11 -67,-15 -96,-16 -522,-9 -578,10 -925,21 -977,33 -23,5 -66,8 -95,7 -29,-2 -57,0 -62,3 -14,8 -57,9 -61,2 -4,-7 -283,-4 -495,5 -63,2 -230,7 -370,10 -140,3 -300,8 -355,11 -55,3 -196,6 -312,7 -117,1 -213,5 -213,8 0,4 -105,7 -232,6 -128,0 -264,0 -303,1 -83,2 -53,2 -400,6 -154,2 -282,4 -285,5 -3,1 -86,3 -186,5 -99,1 -185,6 -192,9 -6,4 -14,3 -17,-3 -4,-6 -15,-8 -26,-5 -10,3 -62,6 -116,5 -296,-3 -704,2 -748,9 -21,3 -69,4 -107,1 -38,-3 -75,-2 -83,3 -8,4 -22,4 -31,-1 -9,-5 -34,-6 -55,-2 -22,4 -42,4 -44,-1 -3,-4 -15,-6 -27,-4 -20,4 -144,6 -193,3 -11,0 -54,0 -95,1 -41,1 -162,2 -269,2 -106,0 -198,2 -202,5 -5,3 -73,5 -152,5 -78,0 -149,0 -157,0 -8,0 -175,2 -370,4 -491,6 -975,14 -1160,19 -229,6 -442,7 -553,3 -54,-2 -100,-1 -102,2 -5,9 -290,6 -367,-3 -45,-6 -72,-5 -81,2 -12,10 -438,26 -567,21 -164,-6 -942,4 -1100,14 -25,2 -92,1 -150,-3 -58,-3 -110,-3 -116,2 -6,4 -13,5 -17,2 -6,-6 -482,-6 -542,0 -108,12 -304,15 -310,6 -4,-6 -15,-8 -24,-5 -38,12 -173,14 -190,3 -13,-8 -27,-8 -48,-1 -17,6 -35,8 -41,4 -6,-3 -82,-4 -169,-2 -87,3 -4521,6 -9854,8 -7780,3 -9698,1 -9706,-9 z m 8447,-478 c 0,-5 15,-14 34,-20 19,-6 50,-25 69,-43 61,-57 110,-98 172,-145 33,-25 62,-49 65,-52 5,-6 32,-18 48,-21 14,-2 58,-38 109,-87 39,-38 54,-47 67,-40 11,6 18,5 22,-6 6,-16 166,-136 181,-136 5,0 22,-13 38,-30 15,-16 32,-27 37,-24 5,3 24,-10 43,-30 18,-20 38,-36 43,-36 5,0 15,-6 22,-14 6,-8 18,-12 26,-9 9,3 14,-1 14,-12 0,-9 5,-13 10,-10 6,3 13,-2 17,-11 9,-23 43,-57 50,-50 8,8 46,-14 61,-36 7,-10 18,-16 23,-13 5,4 9,0 9,-7 1,-12 76,-71 84,-65 1,1 21,-14 44,-33 68,-58 99,-80 115,-80 8,0 17,-7 21,-15 3,-8 12,-12 19,-9 8,3 31,-12 55,-36 22,-23 46,-39 51,-35 6,3 11,0 11,-8 0,-18 137,-120 150,-112 6,4 9,1 8,-7 -2,-7 2,-12 7,-11 6,1 48,-27 95,-63 47,-35 90,-64 97,-64 10,0 61,-39 123,-94 16,-13 47,-27 54,-23 2,1 14,-10 26,-25 12,-16 26,-28 32,-28 6,0 21,-10 33,-22 12,-13 35,-31 51,-40 51,-30 68,-42 111,-78 81,-67 108,-87 141,-104 57,-29 179,-115 228,-162 26,-24 54,-44 62,-44 8,0 29,-12 47,-27 61,-53 75,-63 75,-56 0,4 7,-3 16,-15 8,-12 21,-22 29,-22 8,0 21,-10 30,-22 8,-13 19,-23 23,-23 4,-1 26,-13 49,-28 24,-15 46,-27 51,-27 4,0 23,-16 42,-35 18,-19 46,-37 61,-40 15,-4 35,-17 43,-30 9,-13 37,-36 63,-52 27,-15 70,-44 96,-65 27,-21 53,-38 58,-38 6,0 7,-5 3,-12 -5,-7 -3,-8 5,-3 7,4 22,-1 34,-13 12,-11 32,-23 45,-27 12,-3 22,-12 23,-18 0,-13 83,-77 99,-77 6,0 10,-4 10,-10 0,-5 5,-10 11,-10 14,0 91,-53 136,-95 21,-19 46,-38 56,-41 9,-3 17,-10 17,-15 0,-5 6,-9 14,-9 8,0 16,-7 20,-15 3,-8 16,-20 28,-25 13,-6 41,-24 63,-40 22,-17 58,-39 81,-50 23,-10 49,-31 58,-45 9,-14 21,-23 25,-20 5,3 20,-6 32,-20 13,-13 27,-25 30,-25 11,0 107,-67 151,-105 23,-19 47,-35 54,-35 6,0 19,-12 29,-26 9,-14 31,-32 48,-40 18,-8 52,-30 77,-49 25,-18 49,-34 54,-34 5,-1 27,-16 50,-34 23,-18 68,-51 101,-72 105,-67 139,-90 158,-105 9,-8 33,-24 51,-35 19,-11 61,-41 95,-68 34,-26 77,-56 96,-66 19,-10 33,-20 30,-22 -2,-3 19,-20 46,-39 27,-19 73,-53 102,-76 29,-22 57,-39 63,-37 6,2 23,-10 37,-27 14,-16 29,-30 33,-30 4,0 18,-12 31,-26 13,-15 30,-23 38,-20 8,3 15,1 15,-5 0,-5 11,-14 25,-19 14,-5 25,-14 25,-20 0,-5 16,-16 35,-24 19,-8 38,-22 41,-31 3,-8 10,-15 15,-15 19,0 95,-56 91,-68 -2,-6 1,-12 6,-12 6,0 41,-20 79,-45 37,-25 73,-45 79,-45 6,0 25,-18 43,-41 18,-22 39,-38 46,-35 7,2 23,-6 36,-20 12,-13 27,-24 32,-24 5,0 30,-17 56,-38 25,-21 53,-42 61,-45 34,-16 91,-54 130,-89 24,-21 49,-38 56,-38 7,0 19,-9 27,-21 16,-22 112,-89 128,-89 5,0 9,-4 9,-10 0,-5 7,-10 15,-10 8,0 15,-4 15,-10 0,-5 6,-10 14,-10 8,0 21,-8 28,-17 7,-10 21,-22 29,-28 49,-30 129,-88 139,-100 7,-8 18,-15 24,-15 7,0 34,-20 61,-44 27,-25 52,-43 56,-41 3,3 24,-11 47,-30 22,-19 45,-35 51,-35 6,0 11,-4 11,-10 0,-5 6,-10 14,-10 8,0 28,-12 45,-26 17,-14 35,-23 41,-19 5,3 10,2 10,-2 0,-5 14,-17 30,-26 17,-10 30,-24 30,-31 0,-8 6,-16 14,-19 8,-3 48,-30 88,-59 85,-61 98,-69 156,-98 23,-12 42,-25 42,-29 0,-4 -9,-34 -20,-67 -11,-32 -20,-69 -20,-81 0,-12 -4,-24 -9,-27 -5,-4 -12,-25 -16,-49 -4,-23 -10,-46 -13,-51 -2,-5 -7,-38 -9,-75 -2,-36 -5,-93 -8,-126 -5,-70 -14,-305 -20,-525 -2,-85 -7,-213 -9,-285 -3,-71 -6,-148 -5,-170 0,-134 -4,-207 -14,-222 -4,-7 -3,-49 3,-94 6,-45 8,-89 5,-98 -8,-20 -16,-227 -19,-491 -1,-113 -4,-209 -8,-215 -7,-12 -3,-63 7,-88 4,-10 2,-45 -5,-77 -7,-33 -10,-69 -7,-82 4,-12 2,-28 -4,-34 -7,-9 -7,-19 0,-32 6,-11 8,-22 5,-25 -3,-3 -7,-128 -9,-279 -2,-150 -7,-352 -10,-448 -3,-96 -8,-286 -10,-422 -1,-136 -6,-251 -9,-257 -4,-5 -2,-12 4,-16 9,-6 7,-83 -6,-225 -3,-30 -7,-158 -10,-283 -2,-126 -6,-233 -9,-237 -3,-5 -1,-11 4,-14 5,-3 6,-21 2,-38 -12,-56 2,-182 22,-202 36,-37 10,-68 -61,-73 -74,-5 -78,-6 -141,-63 -33,-29 -68,-58 -78,-63 -17,-9 -73,-65 -176,-175 -27,-29 -65,-64 -85,-80 -20,-15 -47,-40 -61,-55 -13,-15 -35,-34 -50,-41 -14,-8 -79,-66 -144,-130 -64,-64 -119,-116 -121,-116 -1,0 -32,-28 -67,-62 -61,-59 -262,-248 -319,-300 -14,-13 -41,-41 -60,-64 -34,-40 -146,-139 -179,-159 -9,-5 -35,-28 -57,-50 -52,-53 -214,-199 -225,-203 -5,-2 -9,-10 -9,-18 0,-8 -4,-14 -9,-14 -5,0 -34,-24 -63,-53 -30,-28 -88,-81 -129,-115 -103,-89 -218,-191 -254,-228 -16,-17 -48,-44 -70,-60 -62,-45 -87,-67 -110,-93 -71,-84 -277,-269 -331,-298 l -41,-23 -46,48 c -26,26 -52,53 -59,61 -7,7 -31,32 -54,56 -22,23 -46,57 -54,74 -9,24 -29,40 -71,61 -32,17 -60,38 -64,50 -3,11 -11,20 -16,20 -5,0 -9,7 -9,15 0,14 -17,32 -112,121 -13,12 -41,43 -63,70 -42,51 -84,94 -184,187 -33,31 -69,73 -79,91 -9,19 -26,51 -36,71 -13,24 -32,43 -55,52 -41,17 -51,29 -51,60 0,13 -12,29 -32,42 -18,11 -44,34 -58,51 -14,17 -32,39 -41,49 -8,10 -18,25 -22,34 -4,10 -17,21 -31,26 -13,6 -39,26 -58,45 -19,20 -38,36 -41,36 -12,0 -47,34 -47,45 0,6 -8,18 -17,26 -10,9 -28,27 -39,40 -12,13 -36,37 -55,54 -18,16 -46,48 -61,70 -26,36 -106,123 -246,269 -26,26 -71,59 -99,73 -46,21 -53,28 -53,53 0,30 -64,118 -86,119 -11,1 -28,29 -26,42 0,3 -28,32 -64,64 -35,32 -64,64 -64,70 0,6 -27,37 -60,69 -33,32 -60,62 -60,67 0,11 -143,154 -151,152 -4,-2 -19,11 -33,28 -14,16 -58,60 -98,96 -40,37 -77,79 -83,94 -9,23 -73,99 -127,149 -53,49 -238,243 -238,249 0,5 -26,36 -57,71 -32,34 -62,70 -67,79 -5,9 -50,57 -100,108 -50,51 -101,103 -112,115 -30,32 -51,48 -63,48 -6,0 -22,17 -35,38 -13,21 -36,46 -51,56 -50,33 -90,78 -92,103 -1,14 -10,34 -20,45 -17,19 -17,20 2,34 10,8 37,14 60,14 23,0 50,7 61,15 10,8 26,15 35,15 8,0 30,16 49,35 19,19 40,35 47,35 7,0 19,11 28,23 8,13 38,38 65,56 27,18 55,40 63,49 7,9 21,22 32,28 121,67 174,92 195,92 14,0 64,18 111,41 48,22 94,41 103,41 8,0 42,18 73,40 32,22 65,40 74,40 8,0 28,14 44,30 16,16 37,30 47,30 10,0 42,16 71,35 28,19 57,35 64,35 7,0 13,5 13,10 0,6 6,10 14,10 8,0 34,15 59,34 24,19 55,37 68,41 30,9 177,88 224,119 19,13 63,49 98,80 35,31 71,56 79,56 9,0 22,7 29,16 7,9 23,20 36,25 13,5 23,15 23,23 0,14 41,46 59,46 5,0 23,13 40,28 17,15 43,29 58,30 34,3 143,73 203,130 25,24 70,60 100,80 75,50 86,59 145,118 28,28 78,66 111,86 32,19 72,47 88,61 15,14 38,29 50,33 11,4 34,16 51,28 16,11 39,26 50,32 11,6 19,16 18,22 -3,14 104,122 121,122 20,0 53,41 76,93 17,38 20,59 15,105 -3,31 -7,57 -8,57 -1,1 -21,16 -44,33 -53,41 -71,106 -55,198 7,40 7,63 0,71 -6,7 -8,19 -5,27 6,14 -59,96 -77,96 -5,0 -19,8 -30,19 -12,10 -41,29 -66,42 -25,13 -51,32 -58,42 -7,9 -17,15 -21,12 -5,-2 -30,15 -56,40 -27,24 -51,42 -55,40 -4,-2 -29,16 -56,40 -27,25 -51,45 -54,45 -3,0 -25,19 -50,42 -25,24 -48,43 -51,43 -3,0 -20,17 -38,37 -18,21 -36,37 -39,36 -4,-1 -36,27 -71,60 -35,34 -68,62 -73,62 -13,0 -168,153 -168,167 0,6 -12,16 -27,21 -16,5 -53,36 -83,67 -30,32 -72,74 -93,94 -21,20 -66,65 -100,99 -34,35 -75,71 -92,79 -16,9 -64,50 -106,92 -41,42 -99,96 -128,121 -83,70 -117,100 -189,169 -37,35 -97,88 -134,117 -41,33 -68,62 -68,74 0,10 -9,25 -20,33 -11,7 -43,36 -72,63 -29,27 -58,49 -64,49 -6,0 -42,21 -80,45 -80,53 -92,60 -159,96 -27,14 -67,38 -90,52 -22,14 -44,27 -50,27 -5,1 -18,5 -28,9 -20,9 -57,-17 -57,-41 0,-19 63,-100 97,-127 96,-73 144,-153 138,-226 -2,-25 -4,-50 -6,-55 -9,-43 80,-175 117,-175 21,0 111,-89 140,-137 13,-24 33,-47 44,-53 11,-6 20,-17 20,-25 0,-8 16,-22 36,-31 20,-10 39,-26 42,-36 2,-10 9,-18 15,-18 15,0 57,-41 57,-56 0,-15 66,-84 80,-84 5,0 15,-9 23,-20 8,-11 17,-17 20,-13 4,3 22,-10 40,-29 17,-20 37,-37 43,-39 17,-6 94,-78 94,-88 0,-5 24,-26 53,-47 28,-20 56,-43 60,-51 5,-7 12,-11 18,-8 5,3 6,0 3,-8 -7,-18 32,-47 62,-47 17,0 24,-9 33,-45 8,-34 27,-61 70,-105 32,-33 62,-60 67,-60 12,0 71,-56 91,-86 9,-14 40,-41 69,-60 29,-19 69,-54 90,-77 21,-23 51,-49 68,-57 17,-8 35,-25 41,-38 5,-12 14,-22 20,-22 5,0 30,-23 54,-50 25,-28 48,-50 53,-50 5,0 32,-22 61,-50 29,-27 57,-50 63,-50 6,0 19,-10 30,-21 20,-22 109,-69 131,-69 7,0 13,-8 13,-18 0,-9 12,-34 26,-55 20,-30 24,-45 18,-70 -10,-49 -142,-215 -195,-246 -42,-25 -119,-93 -113,-102 2,-4 -10,-16 -28,-25 -18,-9 -39,-25 -46,-35 -7,-11 -19,-19 -26,-19 -8,0 -32,-18 -55,-40 -22,-22 -46,-40 -51,-40 -6,0 -10,-4 -10,-9 0,-9 -92,-79 -132,-100 -15,-8 -37,-22 -47,-33 -11,-10 -23,-18 -25,-18 -6,0 -85,-57 -116,-83 -29,-24 -79,-55 -99,-62 -12,-3 -21,-11 -21,-16 0,-5 -6,-9 -13,-9 -8,0 -22,-9 -32,-20 -10,-11 -22,-17 -26,-14 -5,3 -22,-4 -37,-15 -16,-11 -35,-21 -42,-23 -8,-2 -19,-12 -25,-23 -14,-28 -183,-137 -211,-137 -13,0 -24,-6 -24,-12 0,-6 -15,-17 -32,-25 -18,-7 -50,-26 -70,-42 -20,-16 -41,-29 -45,-29 -5,0 -30,-13 -56,-30 -26,-16 -54,-30 -61,-30 -7,0 -33,-18 -57,-39 -23,-22 -54,-43 -67,-46 -14,-3 -50,-28 -80,-55 -30,-27 -59,-47 -64,-44 -5,3 -16,0 -24,-7 -9,-7 -38,-21 -66,-31 -28,-9 -56,-25 -63,-35 -9,-11 -28,-17 -64,-19 -32,-1 -59,-8 -70,-18 -15,-13 -20,-14 -24,-4 -3,9 -15,4 -38,-18 -50,-45 -104,-84 -119,-84 -6,0 -21,-11 -32,-25 -11,-14 -28,-25 -38,-25 -11,0 -25,-12 -32,-27 -7,-14 -22,-31 -33,-37 -11,-6 -33,-21 -48,-34 -40,-31 -81,-26 -126,16 -20,19 -52,45 -72,57 -20,13 -47,38 -59,54 -12,17 -30,31 -41,31 -12,0 -25,11 -32,28 -16,37 -108,142 -125,142 -7,0 -11,4 -7,9 3,5 -7,19 -22,30 -16,11 -33,25 -40,31 -7,5 -19,10 -27,10 -9,0 -13,6 -11,13 5,14 -22,50 -52,65 -11,6 -30,32 -42,57 -12,25 -28,45 -35,45 -8,0 -17,8 -20,18 -10,29 -71,92 -89,92 -17,0 -66,44 -68,61 -1,5 -2,13 -3,19 -1,9 -137,159 -203,224 -18,18 -33,37 -33,44 0,6 -9,14 -20,17 -11,3 -20,10 -20,14 0,4 -18,27 -40,50 -22,23 -40,46 -40,51 0,13 -105,120 -118,120 -7,0 -12,4 -12,10 0,5 -13,16 -30,25 -16,9 -30,22 -30,30 0,8 -4,15 -9,15 -6,0 -16,12 -23,27 -7,15 -25,34 -40,41 -34,16 -145,128 -154,154 -3,11 -12,17 -19,14 -8,-3 -12,0 -9,7 5,15 -103,121 -171,167 -27,19 -93,77 -146,130 -53,52 -109,106 -125,120 -39,34 -164,170 -165,178 0,4 -31,34 -70,67 -38,33 -69,64 -69,68 0,12 -150,157 -161,157 -5,0 -9,7 -9,15 0,8 -14,24 -30,37 -16,12 -30,26 -30,30 0,13 -227,238 -239,238 -6,0 -11,6 -11,13 0,16 -213,237 -228,237 -7,0 -12,5 -12,11 0,6 -26,37 -57,68 -32,32 -65,67 -74,77 -9,10 -45,46 -80,80 -68,65 -219,229 -219,238 0,3 -29,36 -65,73 -36,37 -65,71 -65,76 0,14 -94,107 -108,107 -7,0 -11,4 -8,9 3,5 0,8 -7,7 -11,-1 -88,76 -182,184 -17,19 -57,57 -89,84 -32,27 -60,55 -63,62 -5,14 -26,37 -209,225 -67,68 -126,134 -133,147 -6,12 -16,22 -21,22 -19,0 -46,26 -165,160 -27,31 -70,78 -95,105 -25,28 -59,69 -76,92 -29,39 -52,65 -154,173 -25,26 -52,60 -60,76 -8,16 -43,57 -77,90 -74,74 -85,103 -55,155 12,21 19,45 16,54 -4,9 2,25 12,36 18,20 22,35 28,94 2,21 12,35 35,48 17,11 34,29 37,42 3,12 16,28 30,35 13,7 26,20 29,29 13,39 402,408 447,424 42,15 129,79 138,101 5,13 28,34 51,47 23,13 47,33 53,44 20,36 137,145 156,145 10,0 25,8 32,18 7,9 27,24 43,32 47,23 86,51 81,59 -3,4 7,12 22,19 15,6 37,28 49,47 13,20 35,37 50,41 16,4 42,18 59,31 17,12 38,23 46,23 23,0 65,37 72,63 3,13 24,37 46,52 23,16 46,37 51,47 5,10 17,18 27,18 26,1 57,28 57,51 0,21 21,36 93,66 30,12 48,27 59,51 9,19 26,37 37,42 24,9 148,129 173,166 9,14 35,29 69,39 78,23 162,84 189,138 6,12 21,23 33,25 13,2 26,10 29,18 3,8 12,14 20,14 24,0 109,61 127,91 9,16 30,36 46,45 15,10 33,28 39,41 6,13 16,22 23,21 7,-2 12,4 13,12 0,8 10,19 22,25 12,6 44,35 72,64 28,30 51,50 51,46 0,-4 23,9 50,29 28,20 53,36 56,36 4,0 23,15 44,33 20,17 51,43 68,57 17,14 31,31 32,38 0,6 5,12 11,12 14,0 104,77 195,166 39,40 86,80 103,90 17,10 31,25 31,32 0,8 8,16 18,19 9,2 30,22 45,44 16,21 34,39 41,39 8,0 21,11 30,25 9,14 20,24 24,23 21,-4 86,41 194,135 30,26 59,47 65,47 5,0 19,13 31,30 12,16 37,37 55,46 17,9 51,36 74,60 22,24 45,44 50,44 4,1 24,14 43,30 19,17 38,30 43,30 5,0 21,9 36,19 38,27 111,34 111,11 z m 16231,-168 c 88,-58 110,-75 165,-128 81,-77 178,-163 234,-207 25,-19 56,-46 70,-59 14,-14 62,-54 106,-90 45,-36 91,-75 103,-87 12,-12 24,-21 29,-21 4,0 39,-30 77,-67 39,-36 86,-76 107,-89 20,-13 51,-38 70,-56 18,-19 51,-47 72,-62 34,-26 138,-119 247,-222 19,-19 41,-34 47,-34 7,0 12,-5 12,-10 0,-12 100,-108 130,-124 57,-32 142,-98 194,-151 33,-33 65,-59 71,-58 6,2 43,-29 83,-67 40,-39 77,-70 83,-70 6,0 47,-34 92,-75 45,-41 85,-75 89,-75 5,0 49,-40 100,-90 51,-49 96,-90 100,-90 4,0 31,-22 60,-50 29,-27 56,-50 60,-50 5,0 29,-20 56,-45 26,-25 62,-52 79,-60 18,-9 37,-24 43,-34 5,-10 24,-25 43,-34 30,-15 150,-123 158,-144 6,-14 85,-83 96,-83 5,0 27,-18 48,-40 21,-22 45,-40 52,-40 7,0 32,-19 55,-42 84,-83 195,-178 209,-178 8,0 75,-59 149,-130 74,-72 143,-133 153,-136 9,-3 15,-10 12,-15 -4,-5 -1,-9 6,-9 6,0 53,-37 104,-82 107,-96 143,-126 203,-169 23,-17 42,-34 42,-39 0,-5 16,-18 35,-30 69,-43 132,-161 112,-211 -5,-13 -11,-32 -12,-42 -1,-10 -45,-60 -98,-111 -54,-51 -97,-98 -97,-104 0,-7 -5,-12 -12,-12 -6,0 -44,-33 -83,-72 -40,-40 -97,-96 -128,-125 -32,-29 -57,-56 -57,-61 0,-11 -86,-92 -97,-92 -5,0 -67,-56 -138,-126 -72,-69 -147,-137 -167,-151 -21,-14 -40,-34 -43,-44 -4,-11 -12,-19 -18,-19 -6,0 -48,-37 -93,-82 -144,-146 -307,-302 -362,-348 -85,-69 -182,-161 -182,-172 0,-3 -59,-64 -132,-135 -73,-70 -211,-206 -307,-302 -97,-95 -186,-180 -198,-188 -13,-9 -23,-19 -23,-24 0,-4 -44,-52 -97,-106 -54,-55 -141,-144 -193,-198 -53,-55 -120,-123 -150,-151 -30,-28 -91,-88 -136,-135 -98,-102 -391,-388 -538,-524 -59,-55 -179,-171 -267,-257 -88,-87 -163,-158 -167,-158 -11,0 -92,-88 -92,-100 0,-5 -9,-14 -19,-20 -28,-15 -121,-107 -121,-120 0,-6 -7,-13 -16,-17 -9,-3 -33,-22 -53,-42 -61,-59 -155,-139 -205,-175 -25,-18 -59,-53 -75,-77 -15,-24 -41,-55 -56,-69 -15,-14 -54,-64 -86,-112 -33,-48 -85,-116 -117,-150 -32,-35 -69,-79 -84,-98 -28,-38 -39,-51 -167,-188 -47,-52 -88,-99 -90,-105 -7,-22 -65,-91 -125,-149 -33,-32 -61,-58 -61,-58 0,0 -28,-26 -60,-58 -33,-32 -77,-66 -97,-75 -21,-10 -38,-24 -38,-31 0,-7 -21,-30 -47,-52 -26,-21 -55,-47 -65,-56 -10,-10 -18,-15 -18,-12 0,6 -54,-43 -131,-118 -16,-16 -34,-28 -42,-28 -7,0 -24,-11 -37,-25 -18,-19 -33,-25 -58,-23 -18,1 -36,6 -38,10 -3,5 -9,6 -13,3 -5,-2 -16,4 -26,15 -9,10 -23,16 -31,13 -8,-3 -21,3 -29,13 -7,11 -17,19 -22,19 -20,2 -58,19 -76,35 -10,10 -30,21 -44,25 -14,3 -37,13 -51,23 -14,9 -31,17 -39,18 -7,1 -32,18 -53,38 -22,20 -47,36 -56,36 -20,0 -74,28 -95,49 -9,9 -27,23 -40,31 -13,8 -37,30 -54,48 -17,17 -36,32 -43,32 -21,0 -101,48 -138,83 -21,19 -54,40 -74,46 -20,6 -45,20 -54,30 -10,11 -25,17 -34,14 -11,-5 -14,-2 -9,10 3,9 2,17 -3,17 -5,0 -24,16 -41,35 -18,19 -39,35 -48,35 -33,0 -191,91 -191,110 0,6 -8,10 -17,11 -10,0 -31,9 -48,19 -16,10 -48,28 -70,39 -41,21 -105,76 -105,90 0,4 -19,14 -42,21 -24,8 -50,20 -59,27 -8,7 -20,13 -25,13 -5,1 -43,30 -84,65 -41,36 -81,65 -89,65 -8,0 -29,11 -47,25 -18,14 -39,25 -46,25 -7,0 -49,30 -93,65 -44,36 -84,65 -89,65 -4,0 -25,14 -46,30 -21,16 -42,30 -48,30 -6,0 -12,4 -14,8 -1,5 -28,27 -58,50 -30,22 -62,50 -70,61 -8,12 -22,21 -31,21 -9,0 -37,19 -61,43 -72,68 -227,192 -246,196 -9,2 -31,15 -48,30 -68,59 -143,109 -193,131 -14,6 -39,26 -57,44 -20,21 -50,38 -78,45 -25,6 -60,24 -77,39 -17,15 -53,46 -79,69 -26,24 -50,40 -53,37 -6,-6 -69,40 -122,89 -16,16 -40,33 -53,38 -21,8 -22,10 -8,37 20,39 126,142 146,142 9,0 36,13 58,30 23,17 46,30 50,30 5,0 19,11 32,25 13,14 29,25 36,25 6,0 17,6 23,14 6,7 29,16 50,20 22,3 52,17 68,30 15,13 55,38 88,56 33,18 64,38 68,46 4,8 13,14 20,14 7,0 59,29 116,65 57,36 108,65 115,65 28,0 108,40 186,92 47,31 97,59 112,63 15,4 32,13 39,21 6,8 19,14 28,14 9,0 33,11 53,25 20,14 41,25 46,25 5,0 23,7 38,15 16,8 38,15 50,15 26,0 115,44 176,87 26,18 52,33 58,33 23,0 103,45 128,72 28,30 104,71 157,84 17,4 39,13 50,21 11,7 38,18 60,24 22,6 53,20 69,32 16,11 44,21 62,21 19,1 43,9 54,18 10,9 34,25 52,34 17,9 38,23 46,30 7,8 19,14 26,14 7,0 24,10 38,23 30,26 85,57 102,57 7,0 25,13 41,30 15,16 31,29 34,28 3,0 8,1 11,2 3,1 14,3 24,5 56,11 65,17 91,66 14,28 24,57 21,65 -3,7 -1,16 4,19 6,4 10,16 10,28 0,21 56,87 74,87 14,0 76,62 75,74 0,6 -16,24 -34,39 -33,28 -100,42 -111,25 -3,-5 -16,-8 -27,-7 -30,3 -76,-10 -112,-31 -16,-10 -54,-23 -82,-30 -32,-7 -84,-33 -131,-64 -43,-29 -101,-60 -129,-69 -57,-19 -123,-55 -123,-67 0,-4 -12,-11 -27,-15 -16,-3 -37,-15 -48,-25 -20,-18 -82,-41 -121,-46 -31,-3 -209,-92 -230,-115 -9,-10 -22,-19 -29,-19 -17,0 -115,-49 -132,-66 -8,-8 -20,-14 -27,-14 -7,0 -25,-9 -40,-21 -14,-11 -30,-17 -36,-14 -5,3 -20,-1 -32,-9 -12,-9 -32,-16 -45,-16 -12,0 -24,-4 -28,-9 -3,-6 -13,-9 -23,-9 -18,1 -76,-23 -179,-76 -34,-17 -86,-43 -115,-58 -29,-15 -59,-27 -66,-27 -8,-1 -25,-10 -39,-21 -14,-11 -34,-20 -44,-20 -12,0 -16,-5 -13,-14 4,-11 -5,-17 -30,-22 -20,-3 -41,-15 -47,-25 -5,-11 -14,-19 -19,-19 -5,0 -21,-5 -37,-12 -15,-6 -35,-12 -43,-13 -29,-2 -99,-26 -105,-35 -3,-6 -13,-10 -21,-10 -20,0 -130,-77 -151,-106 -10,-14 -25,-26 -33,-28 -36,-6 -126,-40 -142,-53 -9,-8 -31,-23 -50,-34 -34,-20 -48,-26 -133,-63 -27,-11 -56,-29 -63,-38 -7,-10 -18,-18 -23,-18 -6,0 -17,-7 -25,-15 -9,-8 -25,-15 -38,-15 -12,0 -26,-4 -31,-9 -6,-5 -27,-14 -48,-21 -21,-7 -53,-25 -70,-40 -18,-15 -42,-31 -55,-34 -12,-4 -30,-18 -38,-31 -9,-13 -44,-38 -78,-55 -34,-16 -72,-40 -83,-52 -48,-54 -68,-163 -37,-206 8,-12 12,-22 7,-22 -4,0 17,-25 47,-55 30,-30 65,-65 77,-77 38,-38 74,-68 81,-68 7,0 83,-79 118,-122 6,-7 32,-32 58,-56 25,-24 46,-50 46,-58 0,-8 12,-20 28,-26 31,-14 79,-48 66,-48 -5,0 6,-14 25,-30 18,-17 37,-28 42,-25 5,3 6,-1 3,-9 -4,-10 -1,-16 8,-16 8,0 23,-9 33,-21 12,-12 29,-19 45,-18 26,3 65,-18 109,-58 13,-13 32,-23 42,-23 11,0 19,-5 19,-11 0,-14 41,-48 58,-49 8,0 29,-7 47,-16 24,-11 32,-20 28,-31 -5,-13 -2,-15 16,-10 18,4 20,3 10,-9 -9,-11 -7,-15 7,-20 51,-17 90,-40 121,-70 19,-19 38,-32 43,-29 5,3 14,-4 20,-15 6,-11 32,-31 58,-44 27,-14 66,-47 92,-80 25,-30 51,-55 59,-56 7,0 24,-10 36,-22 22,-24 109,-98 128,-110 5,-3 16,-4 23,-1 8,3 16,-5 19,-20 4,-13 19,-31 33,-38 15,-8 60,-44 101,-81 46,-42 80,-65 91,-63 10,2 26,-5 36,-16 9,-10 25,-19 34,-19 10,0 25,-11 34,-25 9,-14 21,-23 27,-20 5,4 21,-2 37,-13 15,-11 32,-21 38,-23 6,-2 36,-25 65,-52 76,-66 155,-127 167,-127 5,0 12,-6 15,-13 5,-15 79,-53 120,-61 15,-4 27,-11 27,-17 0,-6 4,-8 8,-5 5,3 26,-11 47,-30 21,-19 45,-34 52,-34 7,0 40,-24 72,-54 33,-30 79,-67 103,-83 23,-15 48,-34 53,-41 6,-7 15,-12 20,-10 11,3 71,-40 117,-84 15,-14 43,-31 62,-38 18,-6 42,-20 52,-31 10,-11 34,-27 53,-36 19,-9 62,-43 95,-75 34,-32 66,-58 72,-58 6,0 21,-9 34,-20 13,-11 30,-21 39,-22 9,0 22,-2 30,-2 8,-1 19,-10 25,-20 14,-24 55,-66 64,-66 4,0 24,-15 44,-34 20,-19 39,-32 41,-29 3,2 27,-8 53,-23 84,-47 98,-54 117,-54 9,0 17,-7 17,-15 0,-8 5,-15 12,-15 6,0 22,-10 35,-22 29,-27 31,-77 3,-101 -11,-9 -20,-25 -20,-35 0,-10 -17,-29 -38,-42 -20,-13 -57,-47 -81,-77 -24,-29 -49,-53 -56,-53 -14,0 -95,-69 -81,-70 5,0 2,-7 -5,-16 -7,-9 -14,-23 -15,-33 -2,-9 -11,-20 -20,-26 -10,-5 -28,-20 -41,-32 -13,-13 -33,-23 -43,-23 -11,0 -25,-10 -31,-22 -17,-33 -106,-118 -124,-118 -8,0 -33,-27 -55,-60 -22,-33 -48,-60 -56,-60 -9,0 -18,-9 -21,-20 -3,-11 -9,-20 -14,-20 -30,0 -59,-17 -59,-35 0,-7 -9,-17 -20,-20 -11,-3 -20,-13 -20,-21 0,-8 -5,-13 -12,-12 -7,2 -12,-1 -13,-7 0,-13 -94,-105 -106,-105 -5,0 -9,-4 -9,-9 0,-11 -44,-61 -53,-61 -10,0 -97,-91 -97,-101 0,-5 -3,-8 -7,-8 -23,4 -43,-2 -38,-11 3,-6 1,-10 -5,-10 -13,0 -70,-54 -70,-66 0,-4 -18,-24 -40,-45 -22,-21 -45,-50 -50,-65 -6,-15 -13,-24 -17,-21 -10,10 -44,-13 -37,-25 5,-7 1,-9 -9,-5 -12,4 -17,1 -17,-11 0,-20 -35,-62 -51,-62 -6,0 -8,-4 -5,-9 3,-5 -5,-12 -18,-15 -14,-3 -26,-16 -30,-31 -3,-13 -15,-29 -25,-35 -12,-6 -17,-17 -14,-29 3,-12 -3,-24 -17,-34 -12,-8 -23,-27 -24,-41 -1,-19 -6,-24 -21,-22 -11,2 -33,-6 -49,-18 -31,-23 -76,-64 -76,-71 0,-2 -11,-15 -25,-29 -14,-14 -25,-23 -25,-20 0,2 -11,-3 -25,-12 -14,-9 -22,-20 -19,-25 3,-5 0,-9 -6,-9 -7,0 -26,-10 -43,-22 -17,-12 -27,-17 -23,-10 4,7 1,12 -8,12 -15,0 -21,-12 -17,-33 1,-4 -10,-12 -24,-17 -14,-5 -25,-16 -25,-24 0,-8 -19,-23 -43,-35 -39,-19 -77,-52 -77,-68 0,-10 -61,-62 -81,-68 -10,-3 -21,-14 -24,-24 -3,-10 -31,-37 -63,-59 -31,-22 -91,-77 -132,-122 -41,-45 -92,-95 -113,-110 -21,-16 -51,-46 -66,-67 -15,-21 -50,-60 -77,-87 -27,-27 -49,-52 -49,-56 0,-10 -26,-32 -87,-73 -31,-21 -71,-58 -90,-81 -45,-58 -143,-141 -196,-166 -31,-15 -48,-31 -58,-55 -8,-19 -37,-56 -64,-82 -28,-26 -62,-64 -76,-84 -14,-21 -40,-43 -57,-50 -18,-7 -84,-66 -147,-131 -63,-65 -122,-118 -131,-118 -8,0 -21,-6 -28,-13 -10,-10 -16,-7 -29,13 -21,30 -44,52 -122,113 -81,64 -110,93 -110,109 0,17 -88,85 -103,80 -5,-1 -11,7 -14,18 -3,11 -11,20 -19,20 -7,0 -19,10 -25,23 -6,12 -23,32 -38,45 -14,13 -44,39 -66,59 -22,20 -55,46 -75,58 -36,23 -67,53 -155,146 -27,30 -70,69 -95,88 -25,19 -47,38 -49,43 -5,15 -55,58 -66,58 -9,0 -125,115 -125,124 0,14 -84,86 -95,82 -8,-3 -19,2 -25,10 -10,11 -10,14 1,14 7,0 3,10 -11,25 -13,14 -29,25 -36,25 -7,0 -19,8 -26,18 -7,11 -23,24 -36,31 -12,7 -20,16 -17,21 5,8 -74,80 -88,80 -16,0 -57,50 -57,68 0,13 -11,27 -28,36 -15,8 -34,26 -42,40 -7,15 -24,29 -37,32 -13,4 -32,17 -42,30 -10,13 -21,24 -23,24 -16,0 -178,156 -178,170 0,6 -4,10 -10,10 -5,0 -40,32 -77,71 -111,116 -188,193 -195,193 -10,1 -80,76 -71,76 4,0 3,4 -2,8 -6,4 -21,22 -34,40 -12,17 -27,32 -32,32 -11,0 -103,88 -110,105 -7,17 -102,92 -126,99 -13,4 -23,14 -23,21 0,8 -6,18 -14,22 -7,4 -22,22 -32,39 -23,37 -99,124 -109,124 -4,0 -19,9 -34,19 -18,13 -39,18 -65,16 -57,-5 -61,-1 -59,63 5,123 2,300 -6,355 -4,32 -4,60 1,63 12,7 10,52 -3,56 -7,2 -7,12 1,32 11,30 10,137 -1,130 -8,-5 -6,47 2,61 4,6 4,35 2,65 -6,66 -6,83 2,365 4,121 6,231 4,245 -1,14 -1,88 0,164 1,114 4,143 17,157 21,24 21,69 0,81 -10,5 -15,17 -12,26 10,34 15,102 7,106 -12,8 -6,179 7,203 17,30 15,72 -3,79 -13,5 -15,19 -10,77 3,38 10,76 15,83 6,6 7,15 2,18 -8,5 -16,68 -16,131 0,61 15,281 20,298 3,10 1,24 -5,31 -6,7 -8,40 -5,82 3,38 6,99 7,136 1,36 5,70 10,74 10,11 9,102 -3,109 -5,3 -7,11 -5,18 9,26 12,198 4,203 -5,3 -3,20 5,38 9,22 11,38 4,50 -6,10 -6,22 0,29 5,7 7,30 5,52 -9,104 -1,1081 9,1091 4,3 4,13 1,21 -3,8 0,39 7,68 9,38 10,61 3,82 -8,21 -7,34 2,46 7,10 16,54 20,100 4,54 13,93 27,114 10,18 17,37 13,42 -3,5 0,13 7,18 7,4 21,23 31,41 19,34 18,50 -10,111 -16,35 -16,35 18,63 53,45 57,48 68,48 6,0 15,9 21,20 6,11 18,20 28,20 9,0 33,17 53,38 20,20 71,62 112,92 42,30 77,60 77,66 0,7 11,15 25,18 14,4 35,18 47,31 12,14 27,25 33,25 6,0 31,18 55,40 25,21 50,44 57,50 7,5 20,10 29,10 9,0 35,17 59,38 36,32 200,136 215,137 3,0 19,13 36,28 30,27 140,97 153,97 3,0 17,10 31,23 14,12 42,30 63,39 20,10 37,23 37,29 0,6 6,9 13,6 6,-2 31,11 54,29 23,19 45,34 50,34 5,0 20,11 33,25 13,14 31,25 41,25 9,0 22,7 29,15 12,14 175,128 196,136 33,13 215,129 243,154 18,16 38,29 43,27 6,-1 26,10 46,25 58,46 143,103 154,103 5,0 24,11 42,25 18,14 37,25 41,25 5,0 19,9 31,21 12,11 29,22 38,23 9,1 28,13 43,26 16,13 44,33 64,45 112,63 150,89 158,104 5,9 25,23 45,31 20,7 36,17 36,22 0,4 7,8 15,8 8,0 15,4 15,8 0,5 25,22 57,37 31,16 68,39 83,52 15,12 30,20 34,16 3,-3 6,-1 6,5 0,7 5,12 11,12 6,0 24,14 40,31 16,17 35,29 43,26 8,-3 24,6 37,20 13,14 47,36 74,50 28,14 61,35 75,48 14,13 45,30 70,38 25,8 45,20 45,27 0,6 18,21 40,33 22,12 42,25 43,30 2,4 9,7 16,7 7,0 30,14 51,30 21,17 43,30 50,30 7,0 19,9 26,20 8,11 25,22 38,25 14,2 36,15 50,29 14,13 46,35 71,48 107,60 126,71 146,89 11,10 27,19 35,19 8,0 25,9 39,20 98,78 130,100 145,100 10,0 34,12 54,28 20,15 52,35 71,45 19,10 40,24 45,31 6,7 30,22 55,34 25,11 72,37 105,57 33,19 69,39 80,44 11,5 33,23 49,40 17,17 37,31 47,31 9,0 22,7 29,15 7,8 18,15 25,15 6,0 20,9 30,20 10,11 26,20 35,20 10,0 23,7 30,15 7,8 18,15 24,15 7,0 25,14 41,30 16,17 32,30 37,30 11,0 228,129 253,151 11,9 35,25 53,35 74,42 90,52 164,102 42,28 82,52 87,52 5,0 16,8 23,19 7,10 24,21 36,26 13,4 31,13 40,21 43,37 81,64 91,64 6,0 31,16 57,35 25,19 50,35 55,35 5,0 29,16 55,35 25,19 51,35 58,35 7,0 21,9 31,20 10,11 26,20 35,20 9,0 25,9 35,20 10,11 21,18 25,15 4,-2 18,7 30,20 13,14 28,25 34,25 6,1 27,14 46,30 19,17 40,30 47,30 7,0 13,3 13,8 0,11 59,42 80,42 9,0 23,7 30,15 13,15 92,64 101,61 3,0 19,10 36,24 29,24 122,83 133,85 3,0 33,19 67,43 34,23 67,42 72,42 6,0 11,4 11,9 0,10 14,18 90,57 19,10 53,31 74,46 21,15 47,28 58,28 10,0 18,6 18,13 0,6 17,22 39,34 21,12 59,38 85,57 25,20 54,36 63,36 9,0 27,9 39,21 24,22 71,51 122,74 17,9 32,19 32,24 0,5 12,14 28,21 44,18 93,47 116,68 11,11 44,31 71,44 28,13 77,44 110,68 33,25 65,45 70,45 10,1 71,42 153,103 24,18 55,37 68,42 13,5 24,15 24,21 0,6 6,9 14,6 8,-3 22,3 31,13 9,10 27,21 40,24 13,3 39,20 57,36 18,17 38,30 45,30 7,0 13,4 13,9 0,5 15,15 33,22 17,7 41,21 51,31 16,14 45,24 106,37 3,0 17,-7 31,-17 z m 5099,-2506 c 0,-2 -7,-21 -16,-41 -16,-39 -308,-345 -329,-345 -5,0 -15,-8 -22,-19 -12,-19 -73,-46 -73,-32 0,4 12,21 28,38 53,57 63,70 67,92 2,13 25,44 50,69 25,26 45,55 45,65 0,10 8,17 19,17 11,0 23,9 26,20 9,27 64,77 93,85 13,3 36,17 50,30 22,21 62,34 62,21 z"
       id="path482"
       style="fill:#ff00cc" />
    <path
       d="m 6462,5039 c -9,-10 -62,-14 -200,-15 -103,-1 -216,-4 -252,-7 -36,-3 -99,-6 -140,-8 -41,-1 -86,-7 -100,-12 -32,-13 -46,-15 -155,-23 -70,-5 -104,-13 -155,-37 -66,-31 -72,-34 -90,-36 -5,0 -10,-8 -10,-16 0,-9 -8,-25 -19,-36 -37,-40 -34,-195 5,-224 10,-8 24,-15 31,-15 6,0 15,-9 18,-20 4,-11 19,-28 33,-37 15,-9 37,-27 50,-40 19,-19 53,-30 65,-20 2,1 10,-3 18,-10 8,-6 64,-14 124,-18 61,-4 128,-10 150,-12 22,-2 55,-4 73,-5 17,-2 32,-6 32,-10 0,-4 5,-8 11,-8 5,0 7,5 3,11 -4,7 -2,9 7,5 8,-3 22,-9 32,-12 13,-5 17,-14 14,-30 -2,-13 1,-25 7,-27 6,-2 12,-17 13,-33 10,-138 17,-200 23,-204 4,-3 7,-36 7,-74 1,-52 5,-71 17,-78 9,-5 16,-20 16,-33 0,-14 3,-25 8,-25 4,0 8,-21 8,-47 1,-27 9,-68 18,-93 8,-25 16,-63 16,-86 0,-22 3,-43 6,-46 3,-4 7,-32 10,-65 2,-32 7,-71 12,-88 5,-16 5,-45 1,-62 -4,-18 -3,-31 1,-28 13,8 21,-26 10,-40 -8,-9 -6,-17 5,-29 9,-9 14,-16 10,-16 -4,0 0,-7 9,-15 8,-8 19,-15 25,-15 6,0 12,-4 12,-10 1,-5 2,-13 3,-17 1,-5 6,-24 10,-43 20,-86 44,-117 114,-151 59,-29 77,-33 148,-33 72,0 86,4 127,30 31,19 48,38 53,56 3,15 12,32 21,36 33,19 40,202 10,261 -9,19 -17,45 -17,58 0,21 -24,119 -51,210 -6,17 -12,61 -14,98 -3,36 -8,71 -11,77 -7,11 -9,34 -20,223 -3,49 -10,98 -16,108 -7,13 -6,23 1,30 15,15 14,27 -4,27 -13,0 -13,3 -3,20 10,15 10,25 2,37 -8,13 -7,31 2,68 8,27 14,60 14,72 0,25 -5,24 115,23 28,0 73,-5 100,-10 49,-9 129,-7 275,6 41,3 87,7 102,8 14,0 43,16 63,34 20,17 41,32 45,32 4,0 17,16 29,35 19,33 20,39 6,90 -12,47 -23,64 -75,112 -37,34 -94,72 -140,95 -44,21 -82,43 -85,48 -3,6 -19,10 -35,10 -15,0 -30,5 -32,11 -2,5 -15,12 -28,14 -49,7 -165,38 -170,44 -3,4 -27,8 -55,10 -27,2 -54,5 -59,9 -5,3 -32,6 -60,7 -28,1 -69,5 -91,9 -28,5 -44,4 -53,-5 z"
       id="path484"
       style="fill:#ff00cc" />
    <path
       d="m 8202,5026 c -41,-7 -77,-17 -80,-23 -4,-5 -31,-16 -60,-23 -59,-14 -116,-55 -200,-144 -29,-30 -59,-59 -65,-63 -7,-5 -21,-26 -31,-48 -11,-22 -31,-52 -43,-66 -13,-14 -23,-30 -21,-35 4,-12 -21,-72 -42,-104 -10,-14 -15,-31 -13,-37 3,-7 -1,-30 -8,-50 -7,-21 -13,-90 -15,-153 -1,-63 -3,-115 -4,-115 -1,0 -3,-18 -5,-40 -7,-66 -15,-105 -24,-105 -4,0 -8,-7 -8,-15 0,-8 3,-15 7,-15 4,0 7,-29 6,-65 -1,-36 -4,-65 -8,-65 -5,0 -8,-9 -8,-20 0,-11 4,-20 9,-20 5,0 10,-12 10,-27 1,-62 8,-130 14,-140 4,-6 1,-14 -5,-16 -10,-4 -10,-6 0,-6 6,-1 12,-13 12,-27 0,-14 4,-23 10,-19 6,3 10,1 10,-4 0,-6 -4,-11 -10,-11 -5,0 -10,-9 -10,-21 0,-11 4,-18 9,-14 6,3 8,-3 6,-14 -2,-11 3,-25 11,-32 10,-8 11,-15 4,-24 -7,-8 2,-20 30,-41 22,-16 43,-38 46,-48 4,-11 17,-31 30,-45 13,-14 22,-32 19,-38 -2,-7 8,-21 23,-30 15,-10 47,-37 72,-60 67,-63 72,-67 105,-83 16,-8 39,-25 50,-37 24,-27 69,-30 164,-13 35,6 71,8 79,5 7,-3 32,9 54,27 30,23 50,32 77,31 37,-1 65,13 56,28 -3,4 4,6 16,4 26,-5 60,11 56,28 -1,7 12,13 35,15 27,2 48,14 78,43 23,23 39,43 36,46 -8,8 14,34 24,28 5,-3 19,8 32,25 57,73 68,89 68,98 0,5 18,26 40,46 22,20 40,42 40,49 0,8 12,24 26,38 15,14 23,31 20,42 -3,12 1,17 12,15 11,-2 18,5 20,19 2,12 14,29 28,37 13,9 24,25 24,35 0,10 7,24 15,31 8,7 15,18 15,25 0,7 13,26 29,41 27,25 28,30 16,47 -9,13 -11,26 -6,36 5,9 10,21 10,26 3,25 15,51 30,61 17,13 19,91 3,135 -5,13 -7,51 -4,85 3,47 0,64 -12,76 -9,9 -16,20 -16,23 0,11 -37,55 -42,50 -2,-3 -3,8 0,23 2,20 -4,37 -21,58 -13,16 -36,53 -50,83 -14,29 -35,58 -48,65 -12,6 -23,21 -24,33 -2,27 -34,68 -121,158 -82,83 -112,108 -124,100 -5,-3 -20,6 -33,20 -13,15 -31,27 -39,29 -8,1 -27,9 -41,19 -15,9 -31,17 -37,17 -5,0 -10,6 -10,13 0,8 -8,21 -18,30 -24,22 -181,29 -280,13 z m 184,-593 c -5,-11 0,-13 22,-8 20,4 29,2 30,-7 3,-36 10,-53 23,-53 9,0 14,-11 14,-33 0,-30 5,-36 31,-33 6,1 19,-10 29,-25 14,-22 15,-30 4,-56 -10,-24 -10,-31 0,-38 13,-7 18,-101 7,-119 -3,-4 6,-23 20,-42 22,-30 23,-35 9,-45 -8,-6 -15,-14 -15,-19 0,-4 -9,-19 -20,-33 -11,-15 -28,-38 -38,-51 -17,-23 -80,-95 -123,-138 -12,-13 -25,-20 -30,-18 -4,3 -10,-4 -14,-15 -4,-11 -11,-18 -16,-15 -5,4 -9,2 -9,-4 0,-5 -9,-8 -20,-6 -11,2 -18,0 -15,-5 9,-14 -36,-57 -66,-64 -19,-4 -31,0 -46,17 -30,33 -49,87 -32,87 6,0 7,5 3,11 -3,6 0,15 7,20 11,6 11,14 1,41 -7,20 -10,63 -7,108 3,41 7,116 10,165 2,50 12,119 20,154 9,36 15,72 13,80 -1,9 4,27 11,39 7,13 10,26 7,30 -4,3 5,18 20,33 14,15 25,31 25,36 -1,4 7,8 18,9 11,1 26,4 35,7 8,3 18,2 21,-3 10,-16 42,-12 49,6 3,8 11,12 17,9 6,-4 8,-14 5,-22 z"
       id="path486"
       style="fill:#ff00cc" />
    <path
       d="m 11656,4861 c -6,-10 -90,-25 -121,-22 -12,1 -59,-13 -105,-30 -91,-34 -180,-98 -180,-129 0,-10 -12,-25 -26,-35 -16,-10 -23,-22 -20,-32 3,-8 -2,-27 -12,-41 -38,-54 -47,-124 -21,-158 5,-6 8,-27 7,-47 -1,-24 7,-46 24,-69 37,-48 54,-87 62,-138 4,-24 12,-50 18,-57 8,-10 8,-20 0,-36 -20,-42 -22,-60 -10,-74 17,-21 20,-53 8,-69 -9,-9 -19,-10 -43,-2 -53,16 -81,31 -97,51 -9,10 -29,19 -45,21 -17,2 -31,10 -33,18 -4,18 -86,59 -128,63 -86,8 -114,17 -139,47 -17,20 -22,34 -16,42 12,15 16,91 8,146 -4,25 -9,59 -11,75 -2,17 -7,38 -11,49 -5,11 -3,22 6,28 11,8 10,9 -3,4 -12,-4 -23,3 -35,22 -25,41 -65,82 -80,82 -7,0 -13,4 -13,8 0,5 -30,33 -67,62 -38,30 -88,71 -112,92 -24,21 -53,38 -65,38 -23,1 -122,33 -133,44 -3,3 -23,6 -43,6 -20,0 -54,9 -75,19 -26,12 -46,16 -60,11 -12,-4 -28,-4 -37,1 -9,5 -63,7 -120,4 -56,-3 -115,-6 -130,-6 -14,0 -32,-6 -38,-14 -7,-8 -23,-15 -35,-15 -12,0 -28,-7 -35,-15 -7,-8 -17,-15 -23,-15 -6,0 -23,-11 -37,-24 -75,-73 -120,-122 -120,-133 0,-7 -9,-17 -20,-23 -11,-6 -19,-17 -18,-23 2,-7 -14,-34 -35,-59 -24,-30 -38,-55 -36,-70 3,-28 -26,-98 -40,-98 -8,0 -23,-38 -37,-95 -10,-44 -37,-85 -54,-85 -11,0 -20,-4 -20,-9 0,-5 -9,-11 -20,-14 -20,-5 -29,-47 -10,-47 6,0 10,5 10,12 0,9 3,9 12,0 8,-8 8,-15 -2,-27 -7,-8 -9,-15 -4,-15 5,0 2,-5 -6,-10 -10,-6 -11,-10 -2,-10 14,0 17,-36 3,-45 -13,-7 -11,-87 2,-103 8,-10 6,-21 -6,-42 -15,-24 -15,-31 -4,-42 8,-7 12,-20 9,-30 -2,-10 1,-25 9,-34 14,-17 19,-113 6,-121 -4,-3 -4,-10 1,-16 5,-7 12,-46 14,-87 5,-75 5,-75 56,-128 29,-28 52,-57 52,-62 0,-6 8,-10 19,-10 21,0 62,-38 92,-86 11,-19 25,-34 29,-34 13,0 56,-42 63,-63 4,-9 10,-16 14,-15 16,4 51,-13 57,-27 3,-8 14,-15 24,-15 11,0 30,-8 43,-19 31,-24 52,-30 124,-36 33,-2 83,-9 110,-16 28,-6 77,-12 110,-13 33,-2 74,-6 91,-10 22,-5 34,-3 44,9 10,12 28,16 69,14 40,-2 68,4 96,18 22,11 56,24 75,28 19,4 41,11 50,16 8,4 22,10 30,13 8,3 42,26 75,51 33,25 72,50 88,56 15,6 27,14 27,17 0,4 12,21 26,37 14,17 35,41 47,55 54,64 89,112 83,117 -3,3 1,18 8,32 7,14 20,39 27,55 26,56 60,85 89,79 15,-3 31,0 34,6 4,6 17,11 29,11 12,0 37,9 55,20 18,11 39,20 48,20 8,0 28,10 45,22 l 29,22 32,-31 c 23,-23 29,-35 22,-45 -6,-7 -9,-17 -8,-23 6,-34 18,-54 35,-58 14,-4 19,-14 19,-36 0,-17 5,-31 11,-31 7,0 9,-11 6,-27 -5,-28 10,-106 26,-130 5,-7 6,-17 2,-22 -3,-5 6,-26 20,-46 13,-21 23,-41 20,-45 -3,-4 2,-13 10,-20 19,-16 19,-49 1,-56 -8,-3 -27,-22 -43,-42 -65,-85 -55,-292 14,-292 19,0 23,-4 18,-19 -3,-11 -1,-22 5,-26 6,-4 16,-18 21,-32 6,-17 14,-23 25,-19 9,3 26,-5 42,-22 15,-16 34,-26 41,-24 8,3 11,0 7,-7 -7,-10 13,-7 37,7 5,2 42,6 82,8 74,3 113,15 128,40 4,7 25,15 47,19 22,4 50,15 63,25 15,12 49,22 93,26 38,4 75,11 82,17 6,5 25,7 41,4 15,-3 33,-1 39,5 10,10 316,15 352,5 52,-14 69,-17 100,-21 19,-3 58,-8 86,-11 33,-5 54,-4 58,3 4,7 19,9 37,5 46,-9 114,22 130,58 7,17 23,46 35,65 13,19 19,34 13,34 -6,0 -9,6 -6,14 10,27 -40,126 -63,126 -4,0 -28,20 -54,45 -29,26 -58,45 -72,45 -12,0 -26,4 -29,10 -3,5 -31,22 -61,36 -30,14 -54,29 -54,34 0,5 -15,8 -32,7 -34,-2 -92,17 -118,38 -8,7 -27,15 -42,19 -16,3 -28,13 -28,21 0,8 -7,15 -15,15 -21,0 -59,36 -51,49 8,12 46,11 63,-2 9,-6 15,-4 19,7 3,9 10,14 15,11 4,-3 13,4 19,15 6,12 19,29 28,39 85,89 100,116 104,191 0,8 4,20 9,25 9,13 -81,115 -102,115 -9,0 -26,11 -39,25 -13,14 -29,25 -36,25 -7,0 -14,5 -16,11 -4,12 -108,50 -108,38 0,-6 -58,17 -102,41 -10,6 -36,10 -59,10 -22,0 -49,5 -61,11 -27,15 -147,19 -175,6 -20,-9 -28,-6 -52,17 -25,24 -28,34 -24,62 4,23 2,34 -6,34 -7,0 -9,5 -5,12 4,6 9,45 11,87 4,93 4,93 2,111 -4,28 1,63 8,57 3,-4 12,2 20,13 9,12 26,20 43,20 16,0 31,4 34,9 3,5 22,3 42,-4 21,-7 51,-9 74,-5 40,7 90,-7 122,-37 13,-11 41,-17 100,-19 46,-1 83,-3 83,-4 0,-1 24,-4 53,-5 l 52,-3 83,81 c 75,74 83,85 82,117 -1,19 -5,42 -8,50 -4,8 -8,25 -10,37 -4,27 -81,117 -125,144 -18,12 -40,18 -49,15 -9,-4 -24,1 -34,10 -10,9 -22,13 -27,10 -5,-3 -24,5 -43,18 -19,13 -45,24 -59,24 -14,0 -68,8 -120,17 -65,12 -154,18 -281,20 -102,1 -190,5 -196,8 -7,4 -14,3 -17,-2 z m -1567,-445 c 7,-8 34,-20 61,-26 33,-8 51,-18 55,-31 4,-10 16,-21 29,-25 45,-11 111,-123 83,-141 -18,-12 -35,-53 -41,-96 -2,-21 -6,-39 -7,-41 -2,-1 -18,-14 -36,-28 -27,-22 -39,-25 -72,-21 -34,5 -43,2 -64,-21 -13,-14 -32,-26 -40,-26 -25,0 -97,-31 -97,-41 0,-5 -7,-9 -15,-9 -8,0 -15,-7 -15,-15 0,-8 -4,-14 -9,-13 -5,2 -26,-12 -45,-30 -23,-22 -44,-32 -58,-30 -22,3 -23,6 -20,96 1,56 7,101 16,115 7,12 12,36 12,52 -1,17 3,37 9,45 6,8 17,40 25,70 7,30 21,66 31,79 10,13 17,27 14,31 -9,15 79,99 109,104 16,3 31,8 34,11 10,9 29,5 41,-9 z"
       id="path488"
       style="fill:#ff00cc" />
    <path
       d="m 19046,4768 c -9,-5 -20,-7 -25,-3 -9,5 -55,-12 -105,-37 -13,-7 -21,-6 -27,3 -6,11 -11,11 -21,1 -6,-6 -21,-12 -32,-12 -12,0 -34,-7 -50,-15 -15,-8 -34,-15 -40,-15 -7,0 -18,-10 -25,-23 -10,-18 -19,-22 -40,-19 -20,3 -33,-2 -42,-15 -8,-10 -33,-31 -57,-47 -40,-27 -66,-58 -67,-79 0,-5 -7,-14 -15,-20 -19,-15 -44,-61 -65,-117 -23,-65 -26,-79 -32,-135 -3,-27 -9,-55 -14,-61 -13,-16 -7,-134 8,-146 9,-8 13,-7 13,2 0,8 3,10 6,7 4,-4 1,-13 -6,-22 -15,-19 3,-47 26,-38 8,3 15,0 15,-6 1,-6 2,-17 3,-23 0,-7 18,-24 39,-37 20,-13 37,-31 37,-39 0,-7 9,-25 20,-39 15,-20 17,-29 9,-39 -11,-14 -10,-15 13,-18 6,0 13,-17 14,-36 7,-67 12,-105 14,-105 1,0 4,-20 6,-45 4,-53 7,-71 16,-85 3,-5 4,-35 3,-65 -2,-30 2,-64 8,-75 6,-11 10,-30 8,-43 -1,-13 2,-28 7,-35 13,-18 23,-49 13,-43 -5,4 -2,-20 6,-51 8,-31 13,-70 11,-85 -3,-15 -1,-28 4,-28 5,0 5,-12 2,-26 -4,-17 -2,-29 6,-34 8,-5 15,-28 17,-52 3,-23 9,-47 14,-52 5,-6 9,-25 9,-42 0,-18 5,-36 10,-39 6,-4 10,-12 9,-18 -1,-7 1,-19 4,-27 4,-8 8,-24 10,-35 2,-11 9,-33 16,-48 6,-16 9,-33 5,-38 -3,-5 4,-21 15,-35 12,-15 21,-35 21,-45 0,-11 4,-19 8,-19 4,0 16,-13 25,-30 10,-16 24,-30 32,-30 8,0 19,-9 25,-19 5,-11 31,-27 57,-37 27,-10 53,-21 59,-26 6,-4 14,-5 17,-2 4,4 14,8 24,9 31,4 63,17 63,26 0,11 49,59 60,59 12,0 12,0 16,120 2,52 1,102 -3,110 -3,8 -8,31 -10,50 -2,19 -8,39 -13,45 -12,14 -10,106 2,122 5,6 5,14 -2,18 -7,4 -7,12 0,24 7,15 20,18 60,16 28,-1 54,-5 57,-9 4,-3 15,-6 26,-6 10,0 21,-9 24,-19 5,-20 51,-36 91,-32 12,1 25,-5 28,-14 3,-8 12,-15 20,-15 7,0 17,-8 23,-17 5,-10 20,-18 33,-19 12,-1 30,-4 38,-7 8,-4 32,-8 53,-10 21,-3 43,-9 50,-16 6,-6 20,-11 32,-11 11,0 38,-14 60,-32 28,-23 47,-32 68,-29 18,2 33,-3 41,-14 7,-9 30,-18 56,-21 25,-2 57,-6 72,-8 41,-6 119,-48 135,-73 11,-16 22,-21 43,-18 15,2 40,-3 56,-11 15,-8 33,-13 40,-10 19,7 74,-32 74,-53 0,-21 26,-36 35,-21 10,16 45,-8 39,-25 -6,-15 5,-19 36,-15 11,1 12,-1 4,-10 -16,-16 56,-93 80,-84 11,4 16,2 14,-7 -2,-8 9,-14 31,-16 19,-2 40,-8 47,-14 16,-13 80,-4 91,14 5,7 22,19 38,28 24,12 29,21 27,43 -2,15 1,25 6,22 9,-5 35,20 44,46 11,27 -12,93 -43,126 -16,17 -29,35 -29,39 0,5 -16,32 -35,61 -23,33 -43,52 -55,52 -11,0 -20,7 -20,15 0,8 -18,26 -39,39 -22,14 -42,30 -46,36 -4,7 -26,20 -49,31 -22,11 -52,26 -66,34 -41,23 -92,45 -107,45 -7,0 -13,6 -13,14 0,8 -14,18 -32,21 -18,4 -42,14 -53,21 -11,8 -27,14 -36,14 -9,0 -36,13 -60,30 -24,16 -55,30 -69,30 -15,0 -30,4 -36,10 -5,5 -24,10 -42,12 -18,1 -38,8 -44,15 -6,7 -21,13 -33,13 -13,0 -43,10 -67,21 -80,40 -91,44 -112,41 -23,-3 -80,21 -71,30 3,3 -4,13 -15,23 -11,10 -20,24 -20,31 0,7 -6,14 -12,17 -8,2 8,24 40,52 28,27 52,55 52,64 0,9 19,35 43,57 39,38 51,55 82,129 7,17 18,44 25,60 7,17 14,40 15,52 5,33 28,96 42,114 8,9 16,34 19,55 3,22 8,46 11,54 9,22 10,202 2,220 -74,168 -113,231 -184,303 -41,41 -90,80 -108,86 -17,6 -49,26 -69,45 -24,22 -52,36 -80,41 -24,4 -50,11 -59,16 -9,4 -28,10 -43,13 -14,3 -34,7 -44,10 -9,3 -28,8 -42,10 -14,3 -44,10 -68,16 -23,6 -53,8 -67,4 -13,-3 -29,-3 -35,1 -17,11 -117,13 -134,3 z m 141,-459 c 9,-9 20,-9 44,0 17,6 49,11 71,11 43,0 122,-34 141,-60 12,-17 17,-20 37,-20 6,0 10,-6 10,-14 0,-8 9,-36 21,-62 17,-41 18,-52 8,-74 -7,-14 -11,-32 -10,-41 1,-8 -12,-35 -29,-60 -16,-24 -30,-52 -30,-61 0,-9 -5,-20 -11,-23 -6,-4 -8,-13 -5,-20 3,-8 -11,-25 -31,-41 -19,-14 -39,-39 -45,-55 -5,-16 -15,-29 -21,-29 -13,0 -87,-77 -87,-91 0,-5 -12,-9 -26,-9 -14,0 -33,-9 -42,-20 -15,-18 -22,-18 -59,-9 -53,14 -71,41 -71,109 -2,144 -9,219 -20,232 -6,8 -9,18 -6,21 4,4 0,17 -8,29 -9,13 -15,37 -15,53 0,16 -6,31 -12,33 -6,2 -11,11 -11,21 0,9 -7,26 -15,37 -8,10 -14,28 -14,39 -1,41 74,101 114,91 13,-3 36,1 51,9 35,18 56,19 71,4 z"
       id="path490"
       style="fill:#ff00cc" />
    <path
       d="m 15315,4590 c -22,-4 -44,-6 -50,-4 -14,6 -115,-84 -115,-102 0,-8 -5,-23 -12,-33 -9,-15 -8,-24 5,-44 10,-16 12,-28 6,-34 -17,-17 -13,-69 9,-111 14,-27 20,-55 18,-86 -2,-33 2,-49 12,-55 8,-4 15,-23 17,-42 2,-19 4,-34 5,-34 7,0 7,-51 0,-60 -11,-14 -4,-88 10,-115 10,-18 9,-25 -4,-38 -12,-13 -18,-13 -30,-2 -9,7 -17,10 -17,6 -1,-3 -2,-10 -3,-15 -2,-19 -16,-23 -31,-11 -9,7 -19,10 -22,6 -4,-4 -1,-11 7,-16 9,-6 10,-10 3,-10 -6,0 -15,5 -18,10 -3,6 -15,10 -26,10 -10,0 -19,5 -19,10 0,6 -7,10 -16,10 -10,0 -14,6 -11,15 4,8 2,17 -3,20 -6,4 -5,13 2,24 7,11 8,26 3,37 -5,11 -9,21 -10,24 -20,64 -28,100 -27,119 1,13 -4,31 -12,40 -7,9 -16,33 -19,53 -5,35 -35,78 -117,168 -50,54 -204,79 -285,46 -22,-9 -54,-33 -71,-53 -31,-37 -31,-37 -58,-20 -14,10 -26,22 -26,28 0,18 -53,60 -107,84 -29,14 -91,29 -140,36 -48,6 -95,15 -104,19 -10,5 -21,4 -27,-2 -6,-6 -19,-7 -29,-3 -20,8 -28,10 -128,20 -141,14 -496,7 -565,-12 -14,-3 -54,-6 -89,-4 -36,1 -75,-4 -90,-12 -14,-7 -43,-14 -64,-15 -20,-2 -49,-7 -63,-12 -14,-6 -30,-7 -35,-4 -6,3 -17,0 -26,-7 -9,-8 -21,-14 -27,-14 -35,-3 -66,-28 -91,-77 -15,-29 -34,-61 -42,-70 -10,-11 -12,-24 -7,-40 4,-13 7,-30 6,-39 -2,-9 17,-32 40,-52 71,-60 108,-101 108,-118 0,-10 17,-26 38,-36 33,-17 41,-18 69,-7 21,9 34,10 38,4 4,-6 21,-8 41,-4 22,4 40,2 50,-7 13,-10 20,-10 45,5 16,9 34,14 41,10 7,-4 23,-9 36,-10 41,-5 52,-12 52,-37 0,-14 7,-30 15,-37 8,-7 13,-15 10,-19 -10,-18 -13,-61 -3,-55 6,4 9,1 6,-7 -3,-8 -1,-23 5,-34 5,-10 11,-40 12,-65 1,-34 6,-46 19,-48 13,-3 14,-7 6,-17 -13,-16 -16,-77 -5,-95 5,-8 10,-57 11,-110 3,-118 0,-106 25,-129 14,-13 19,-26 14,-40 -8,-25 12,-100 32,-123 9,-10 12,-25 8,-38 -4,-13 1,-33 13,-53 12,-21 17,-45 15,-64 -3,-17 0,-34 6,-37 6,-4 11,-19 11,-34 0,-59 20,-103 53,-117 18,-8 60,-41 93,-74 66,-63 141,-105 161,-89 8,7 10,3 6,-11 -3,-12 0,-27 6,-35 10,-12 16,-12 41,1 16,8 32,19 35,24 4,5 11,7 16,3 13,-8 54,37 76,84 9,20 20,39 24,42 3,3 14,20 24,39 13,27 15,39 6,58 -7,15 -7,22 -1,18 13,-8 -1,29 -38,102 -7,13 -12,38 -12,57 0,19 -5,38 -11,41 -5,4 -8,12 -6,18 2,7 -3,17 -12,23 -11,8 -16,33 -17,88 -2,43 -8,83 -14,91 -6,8 -12,34 -12,59 0,37 -3,44 -15,39 -12,-5 -14,-3 -8,8 13,20 14,48 5,112 -6,34 -5,68 0,82 6,16 6,27 -1,31 -6,3 -8,15 -6,26 3,10 -1,35 -9,54 -11,25 -14,72 -13,169 l 1,135 29,24 c 26,22 36,24 79,19 39,-4 54,-2 69,11 10,9 25,14 35,10 9,-3 22,-1 30,5 7,6 20,9 29,5 8,-3 18,0 22,5 3,6 10,9 15,6 5,-3 43,13 84,35 57,31 81,39 101,34 19,-5 23,-10 15,-18 -8,-8 -5,-15 9,-26 11,-8 22,-25 24,-38 2,-12 13,-29 25,-38 16,-11 21,-21 16,-39 -3,-14 -1,-46 5,-72 6,-27 13,-69 14,-96 1,-29 6,-46 13,-43 12,5 12,-85 -1,-124 -4,-14 -9,-41 -11,-60 -1,-19 -3,-35 -4,-35 -5,0 -12,-43 -10,-65 1,-14 2,-46 3,-72 0,-40 4,-48 19,-48 15,0 17,-5 12,-27 -6,-22 -4,-25 9,-20 21,8 41,-26 34,-59 -2,-13 1,-29 8,-34 7,-6 12,-19 11,-28 -2,-9 0,-29 4,-43 4,-15 4,-32 -1,-40 -5,-8 -2,-20 7,-31 10,-10 13,-25 9,-37 -5,-15 -2,-21 9,-21 11,0 16,-10 16,-34 0,-28 7,-40 40,-66 29,-23 40,-39 40,-59 0,-19 14,-41 50,-76 28,-27 50,-45 50,-40 1,6 18,-10 40,-34 33,-39 41,-43 55,-31 13,11 21,10 50,-6 34,-18 35,-18 58,4 13,12 28,22 34,22 6,0 32,23 57,52 33,37 42,55 35,64 -6,8 -6,14 -1,18 14,8 9,143 -6,158 -7,7 -12,27 -12,44 0,18 -4,35 -8,38 -5,3 -9,28 -10,56 0,29 -6,58 -13,66 -9,11 -8,15 5,20 13,5 14,9 5,21 -10,11 -8,18 8,35 19,18 26,19 69,10 27,-6 53,-7 59,-3 16,13 78,-8 68,-22 -5,-7 -9,-18 -9,-24 1,-20 50,-93 61,-92 31,4 34,-3 11,-28 -20,-21 -23,-30 -14,-46 5,-11 19,-22 29,-24 22,-6 22,-8 10,-32 -13,-23 -3,-61 15,-61 15,0 16,-1 18,-45 1,-19 8,-31 19,-33 9,-2 17,-11 17,-21 0,-31 21,-81 35,-81 7,0 24,-18 39,-40 14,-22 31,-40 36,-40 5,0 15,-11 22,-24 7,-14 33,-39 57,-57 39,-28 47,-30 65,-19 19,12 20,11 8,-3 -9,-11 -10,-17 -2,-22 6,-4 14,-4 17,-1 8,8 34,-14 28,-24 -9,-14 41,-4 73,16 18,10 32,24 32,31 0,7 17,24 38,38 33,22 41,34 52,83 14,57 14,74 3,102 -9,24 -10,49 -1,44 4,-3 8,-1 8,4 0,6 -11,13 -24,16 -24,6 -27,15 -43,106 -3,19 -13,45 -21,58 -8,12 -12,25 -9,29 4,3 -1,11 -10,18 -9,7 -18,23 -19,36 -4,36 -11,74 -13,74 -4,0 -7,23 -15,88 -7,53 -6,60 13,74 12,8 21,23 21,34 0,11 4,18 9,14 5,-3 12,-1 16,5 4,6 11,8 16,4 5,-3 16,0 24,6 8,6 19,9 24,5 6,-3 21,1 35,10 13,9 28,15 32,13 5,-2 30,18 57,43 33,32 46,51 41,63 -4,11 -1,16 10,16 8,0 20,9 26,20 18,34 -5,83 -58,124 -49,39 -169,82 -202,73 -11,-3 -18,-1 -14,4 3,5 -4,9 -15,9 -11,0 -23,5 -26,11 -4,6 -13,8 -20,5 -18,-7 -44,73 -51,158 -2,27 -9,55 -15,62 -6,8 -9,20 -6,27 3,8 0,27 -7,43 -23,53 -38,99 -43,129 -3,17 -11,37 -18,45 -7,8 -16,30 -20,47 -3,18 -11,35 -16,39 -5,3 -16,22 -25,42 -8,20 -25,47 -37,60 -23,24 -77,57 -77,47 0,-4 -19,7 -42,24 -48,34 -85,42 -143,31 z"
       id="path492"
       style="fill:#ff00cc" />
    <path
       d="m 16834,4571 c -2,-3 -29,-3 -59,-2 -30,1 -61,-1 -67,-5 -7,-4 -21,-9 -33,-10 -11,-1 -54,-10 -95,-19 -41,-10 -87,-18 -102,-20 -43,-5 -121,-36 -148,-60 -14,-13 -31,-20 -37,-18 -17,6 -132,-110 -132,-134 -2,-74 0,-96 11,-116 7,-12 11,-29 10,-38 -2,-9 4,-22 13,-29 8,-7 15,-18 15,-26 0,-7 8,-19 18,-26 30,-21 52,-61 52,-91 0,-20 6,-30 20,-34 24,-6 25,-21 5,-50 -13,-18 -13,-22 0,-33 8,-7 15,-28 15,-48 0,-19 7,-43 16,-53 18,-20 11,-54 -8,-43 -7,4 -2,-4 11,-19 12,-14 20,-31 16,-37 -4,-6 1,-20 10,-30 9,-10 14,-23 11,-28 -3,-5 1,-15 9,-22 8,-7 14,-28 13,-48 0,-21 4,-54 10,-75 6,-22 6,-39 1,-43 -5,-3 -7,-9 -4,-14 3,-5 -3,-23 -14,-40 -10,-17 -16,-40 -14,-51 3,-10 -5,-40 -16,-65 -13,-26 -19,-53 -15,-63 4,-9 8,-27 10,-41 2,-14 8,-26 14,-28 5,-2 10,-12 10,-22 0,-16 14,-33 30,-36 34,-6 60,-18 60,-28 0,-7 5,-17 12,-24 7,-7 13,-22 14,-35 1,-12 5,-29 8,-38 4,-10 0,-23 -9,-32 -12,-13 -14,-21 -5,-37 6,-11 8,-25 4,-31 -3,-6 -7,-37 -8,-70 -1,-48 2,-59 15,-59 20,0 53,-35 45,-48 -10,-16 40,-61 61,-56 14,4 28,-4 46,-25 22,-26 27,-28 37,-16 9,10 17,12 24,6 7,-6 21,-10 31,-10 34,0 81,-7 93,-15 17,-10 72,-3 84,11 6,7 14,10 20,7 5,-3 14,-1 21,5 7,5 28,10 47,10 46,0 88,6 96,13 3,3 32,4 65,1 47,-5 63,-2 78,11 11,10 22,13 25,8 3,-6 30,-8 58,-5 29,3 79,6 110,7 31,0 60,4 64,9 4,4 22,7 40,7 18,0 63,6 101,14 37,7 75,13 84,13 33,-1 139,111 139,146 0,8 6,19 13,25 7,6 13,21 12,34 -1,33 -33,88 -50,88 -8,0 -37,16 -64,35 -26,19 -55,35 -64,35 -26,0 -141,30 -162,42 -11,7 -78,13 -155,15 -169,5 -165,4 -225,4 -86,-2 -95,0 -115,29 -17,24 -18,29 -5,40 8,7 12,16 10,21 -11,16 36,29 122,34 48,3 111,7 138,11 28,3 87,7 132,9 67,3 93,9 147,35 35,18 76,45 90,60 13,16 32,32 41,38 24,13 36,87 23,144 -7,37 -19,56 -51,84 -45,39 -83,58 -107,55 -9,-1 -27,10 -40,24 -17,18 -27,22 -36,14 -9,-7 -26,-3 -61,14 -45,23 -52,24 -111,14 -46,-8 -68,-8 -81,0 -18,12 -68,7 -88,-9 -7,-6 -14,-5 -18,2 -8,13 -95,11 -112,-3 -9,-6 -18,-6 -26,2 -9,7 -17,7 -24,0 -6,-6 -32,-9 -59,-7 -42,3 -51,7 -71,37 -16,24 -20,37 -12,42 6,3 8,15 5,25 -3,11 -5,21 -5,24 0,3 -9,29 -21,59 -11,30 -19,60 -16,67 3,7 2,16 -3,18 -4,3 -8,23 -8,44 0,28 8,49 28,73 27,33 29,34 91,30 35,-2 99,-4 143,-5 44,-1 91,-5 105,-8 39,-11 198,-16 244,-7 22,4 48,3 56,-1 10,-5 28,-3 47,6 35,17 123,115 123,138 0,8 4,17 9,20 28,18 -48,166 -85,166 -8,0 -14,4 -14,8 0,10 -81,52 -101,52 -8,0 -33,11 -56,24 -24,14 -45,21 -48,16 -3,-5 -18,-2 -33,6 -15,7 -41,14 -59,14 -17,0 -35,5 -38,10 -4,6 -30,10 -58,10 -68,0 -110,5 -126,14 -13,8 -199,14 -207,7 z"
       id="path494"
       style="fill:#ff00cc" />
    <path
       d="m 23731,4383 c -9,-7 -25,-13 -36,-13 -66,-1 -107,-160 -58,-227 13,-17 23,-36 23,-42 0,-12 62,-61 78,-61 26,0 2,-52 -45,-97 -28,-26 -51,-51 -52,-55 0,-5 -1,-9 -2,-10 -7,-24 -10,-50 -8,-78 0,-19 0,-57 0,-85 -8,-245 -12,-349 -15,-403 -5,-78 -31,-126 -70,-129 -33,-2 -72,-26 -74,-45 -12,-96 -11,-105 21,-149 18,-24 47,-59 65,-77 18,-18 30,-38 26,-43 -3,-6 2,-19 11,-29 9,-10 14,-23 11,-29 -4,-5 -2,-13 4,-16 6,-4 8,-15 5,-24 -3,-10 1,-31 10,-47 8,-16 15,-41 15,-55 0,-14 3,-29 7,-33 13,-12 9,-130 -4,-144 -7,-7 -13,-11 -13,-7 0,3 -10,1 -21,-6 -19,-9 -126,-20 -236,-23 -26,-1 -35,-6 -42,-28 -6,-16 -14,-28 -18,-28 -15,0 -8,-56 11,-85 11,-16 19,-36 19,-43 0,-17 35,-56 79,-88 17,-13 28,-24 24,-24 -4,0 12,-18 36,-40 23,-22 49,-38 55,-35 7,2 29,-5 49,-17 30,-17 55,-21 147,-24 61,-1 118,1 127,6 18,9 68,20 128,27 27,3 46,12 52,23 7,13 19,18 37,16 16,-2 34,1 42,8 8,6 33,12 55,13 62,3 101,10 124,22 11,6 31,11 44,11 57,2 271,-1 353,-4 51,-2 95,1 103,7 30,24 72,100 72,131 0,45 -40,117 -91,163 -41,37 -133,86 -187,100 -14,3 -40,14 -57,24 -20,11 -48,17 -82,16 -28,-1 -51,2 -50,7 2,8 -34,13 -45,7 -2,-1 -58,-3 -126,-4 -113,-3 -123,-1 -119,15 3,9 0,19 -6,21 -6,2 -12,35 -14,75 -3,64 -1,74 19,94 13,13 23,27 23,33 0,14 34,18 49,6 9,-7 21,-7 43,1 26,10 35,8 59,-9 41,-27 82,-42 134,-46 37,-3 51,1 77,22 18,14 33,30 33,35 0,5 8,18 17,28 34,37 20,228 -16,228 -5,0 -18,15 -30,33 -11,17 -39,42 -63,53 -110,55 -128,62 -128,53 0,-5 -16,-2 -36,6 -20,8 -40,13 -44,10 -14,-9 -112,48 -119,69 -4,12 -5,46 -4,76 6,109 4,156 -6,182 -6,15 -8,35 -4,43 7,21 -24,118 -48,150 -11,13 -17,29 -14,35 3,5 -6,20 -21,33 -29,26 -25,52 6,42 10,-3 28,0 39,6 14,9 26,10 43,2 17,-8 32,-7 61,5 28,11 41,12 50,3 8,-8 15,-7 28,5 14,13 20,13 38,2 16,-10 27,-10 53,0 19,7 36,8 42,3 6,-5 25,-8 43,-7 17,1 30,-1 27,-5 -6,-11 28,-16 52,-8 11,4 41,5 66,3 26,-3 49,0 52,5 3,5 15,7 27,4 15,-4 29,4 52,29 18,19 44,43 59,52 20,13 30,31 38,70 13,63 4,85 -62,154 -53,56 -95,82 -131,82 -15,0 -38,7 -50,14 -12,8 -53,22 -92,31 -66,14 -104,18 -200,17 -52,-1 -147,4 -160,8 -11,3 -77,7 -244,12 -72,3 -108,0 -120,-9 z"
       id="path496"
       style="fill:#ff00cc" />
    <path
       d="m 22755,4351 c -11,-5 -23,-7 -28,-4 -4,2 -10,-3 -13,-11 -3,-9 -15,-16 -25,-16 -10,0 -19,-7 -19,-15 0,-8 -16,-25 -35,-37 -42,-28 -45,-41 -43,-191 1,-89 -2,-121 -12,-127 -9,-6 -11,-21 -7,-54 4,-26 2,-58 -5,-73 -6,-16 -12,-38 -14,-51 -1,-13 -8,-30 -15,-39 -10,-12 -10,-16 1,-23 11,-7 11,-12 -2,-32 -9,-14 -15,-49 -16,-90 -1,-38 -6,-77 -12,-87 -5,-11 -12,-45 -14,-76 -2,-31 -7,-59 -10,-62 -3,-3 -1,-12 4,-18 7,-8 0,-25 -23,-56 -29,-37 -32,-49 -25,-74 6,-23 4,-33 -10,-43 -9,-7 -16,-19 -14,-27 3,-15 -25,-133 -36,-150 -7,-10 -10,-23 -15,-65 -4,-25 -27,-70 -37,-70 -12,0 -60,52 -60,64 0,8 -7,19 -15,26 -8,7 -26,36 -41,65 -14,29 -34,61 -45,71 -10,9 -19,23 -19,31 0,8 -11,29 -24,46 -12,18 -29,53 -36,79 -7,26 -18,49 -26,52 -8,3 -14,14 -14,25 0,10 -7,22 -16,25 -8,3 -13,10 -10,15 9,14 -23,103 -46,128 -12,13 -17,27 -12,35 4,7 4,10 -1,6 -7,-7 -22,20 -69,122 -6,14 -15,28 -19,31 -4,3 -9,17 -11,30 -2,13 -22,64 -45,112 -23,49 -39,92 -36,96 2,5 -4,16 -14,25 -11,10 -22,28 -25,42 -4,13 -11,24 -16,24 -6,0 -10,7 -10,15 0,8 -4,15 -10,15 -5,0 -10,7 -10,15 0,8 -12,25 -26,38 -14,13 -31,35 -37,47 -7,13 -30,33 -53,45 -22,12 -51,28 -62,37 -25,17 -160,15 -193,-3 -11,-5 -24,-7 -29,-4 -11,7 -60,-42 -60,-59 0,-20 -51,-87 -61,-80 -5,3 -21,-1 -34,-10 -13,-9 -36,-16 -50,-16 -14,0 -25,-5 -25,-11 0,-5 -4,-8 -9,-5 -14,9 -64,-71 -55,-86 5,-7 10,-43 11,-80 2,-57 7,-89 28,-168 2,-8 4,-15 5,-15 8,0 7,-56 -1,-61 -6,-4 -6,-11 2,-20 11,-13 15,-39 20,-136 1,-21 7,-38 12,-38 5,0 6,-7 3,-16 -3,-8 1,-29 10,-46 9,-16 11,-27 6,-24 -14,9 -25,-11 -15,-26 4,-7 9,-35 10,-63 1,-27 5,-90 8,-140 3,-49 7,-118 8,-152 2,-35 7,-66 10,-70 10,-9 9,-81 -1,-87 -12,-7 -6,-144 7,-159 6,-8 9,-39 7,-75 -1,-34 -1,-64 3,-67 3,-3 7,-18 8,-33 2,-15 13,-39 23,-54 11,-15 20,-31 20,-35 0,-5 14,-17 30,-27 36,-21 119,-103 112,-110 -3,-3 0,-12 6,-19 15,-17 89,-15 122,3 14,8 30,13 37,12 6,-1 24,13 38,32 15,20 32,34 38,33 7,-1 13,13 15,31 2,17 7,32 12,32 5,0 7,15 4,33 -14,95 -16,126 -15,167 1,25 2,56 1,70 -2,67 1,292 5,345 2,33 9,61 15,63 14,5 13,21 -5,38 -8,9 -15,21 -15,27 0,7 4,6 10,-3 7,-12 12,-11 31,5 22,20 22,20 15,-1 -4,-14 2,-28 24,-49 23,-22 27,-32 19,-42 -9,-10 -8,-13 1,-13 7,0 10,-8 7,-20 -3,-13 0,-20 9,-20 8,0 14,-7 14,-16 0,-9 20,-35 45,-60 25,-24 45,-51 45,-59 0,-9 16,-31 35,-47 19,-17 32,-34 30,-38 -9,-14 23,-75 54,-104 17,-17 31,-35 31,-42 0,-21 25,-35 38,-22 7,7 12,8 13,2 1,-5 2,-16 3,-25 1,-15 50,-79 60,-79 3,0 29,-24 58,-53 29,-29 68,-65 86,-80 17,-15 32,-34 32,-43 0,-11 6,-13 20,-9 19,6 30,0 98,-56 12,-9 16,-5 13,16 -1,6 8,-2 19,-17 24,-31 110,-54 160,-43 48,10 110,44 110,60 0,8 9,19 20,25 11,6 18,15 16,19 -3,5 3,16 14,26 11,10 20,24 20,31 0,7 7,17 17,22 12,7 14,17 10,41 -5,24 -2,37 12,52 18,20 31,70 36,140 1,20 6,42 10,48 4,7 4,15 1,18 -3,3 -1,12 4,19 6,6 10,16 9,20 -1,5 3,22 9,37 7,16 12,33 12,38 0,6 6,17 14,25 8,8 15,31 16,52 1,55 5,79 16,94 6,7 9,24 8,38 -1,14 7,48 17,75 11,30 15,51 9,53 -6,2 -7,9 -3,15 9,13 10,21 18,117 4,36 10,74 15,85 15,36 22,77 10,70 -18,-11 -11,11 10,30 13,12 17,22 11,28 -6,6 -4,18 6,33 12,19 13,27 4,38 -9,10 -9,16 -1,21 6,4 10,14 9,23 -1,10 1,25 6,34 4,10 8,37 10,60 1,24 5,50 8,58 3,8 8,83 11,167 2,84 7,157 10,162 4,5 -3,25 -15,45 -11,19 -18,40 -15,45 4,5 2,12 -4,16 -5,3 -10,13 -10,22 0,26 -50,85 -67,79 -8,-3 -12,-2 -9,3 3,5 -1,11 -9,15 -8,3 -15,12 -15,21 0,8 -3,14 -7,13 -8,-2 -94,16 -123,26 -8,2 -24,1 -35,-3 z"
       id="path498"
       style="fill:#ff00cc" />
    <path
       d="m 25875,3983 c -16,-2 -39,-7 -50,-12 -45,-19 -110,-29 -121,-20 -8,7 -15,6 -19,-1 -4,-6 -40,-27 -81,-47 -90,-44 -197,-143 -220,-203 -3,-8 -10,-23 -15,-33 -5,-10 -8,-21 -5,-25 3,-5 7,-28 10,-52 3,-25 10,-46 16,-48 8,-3 8,-8 0,-17 -9,-10 -6,-16 10,-25 12,-6 19,-17 17,-24 -3,-7 8,-24 24,-37 16,-13 29,-29 29,-35 0,-7 6,-14 14,-17 8,-3 22,-22 32,-43 10,-20 28,-47 41,-60 13,-13 23,-28 23,-34 0,-5 4,-10 9,-10 14,0 61,-45 61,-59 0,-6 4,-11 9,-11 6,0 22,-11 37,-25 15,-14 30,-25 34,-25 4,0 23,-16 43,-36 19,-20 45,-37 60,-37 25,-2 28,-11 13,-35 -6,-10 -1,-11 19,-6 21,5 27,2 31,-12 6,-19 80,-61 101,-56 12,3 34,-53 40,-102 4,-40 -46,-86 -87,-81 -20,2 -30,-1 -30,-10 0,-7 -15,-16 -34,-19 -19,-4 -39,-13 -46,-21 -7,-8 -16,-13 -20,-10 -4,2 -32,-4 -63,-15 -31,-11 -65,-20 -75,-20 -28,0 -125,-37 -136,-52 -6,-7 -23,-19 -39,-25 -31,-14 -46,-46 -54,-113 -5,-42 -2,-50 41,-108 26,-35 51,-60 56,-57 5,3 11,-3 15,-14 6,-21 87,-91 105,-91 6,0 22,-7 35,-16 13,-9 30,-14 37,-11 7,2 23,0 36,-4 16,-6 33,-4 53,6 16,9 33,13 38,11 5,-3 20,3 34,14 17,14 34,19 50,15 15,-4 28,-1 36,9 8,9 18,16 23,16 5,0 21,9 35,20 19,15 35,19 57,14 23,-4 40,1 67,19 19,13 71,36 115,51 43,15 85,32 92,38 7,6 27,18 45,27 20,10 32,23 32,36 0,12 7,20 17,20 10,0 23,6 30,13 6,6 15,12 19,12 4,0 23,14 43,32 25,22 34,37 30,50 -4,13 2,21 20,29 24,11 25,15 21,78 -6,86 -10,115 -20,132 -5,7 -10,27 -12,43 -2,16 -10,37 -18,46 -8,9 -15,20 -15,24 0,9 -18,28 -115,126 -70,70 -127,114 -190,145 -44,22 -47,24 -94,62 -19,16 -36,26 -38,23 -1,-3 -12,3 -23,13 -11,9 -26,17 -34,17 -15,0 -120,101 -144,139 -9,14 -22,30 -29,34 -19,12 -16,61 5,79 9,9 28,19 42,23 14,4 31,12 38,18 8,6 43,12 79,13 36,1 70,7 76,13 6,6 18,4 35,-7 37,-24 157,-25 197,-1 16,11 29,22 29,26 -1,5 7,21 18,36 15,21 18,31 9,40 -6,6 -11,29 -11,50 0,59 -58,123 -154,171 -42,21 -82,36 -90,33 -7,-3 -19,0 -25,6 -8,8 -11,8 -11,-2 0,-9 -6,-11 -17,-6 -20,8 -200,14 -248,8 z"
       id="path500"
       style="fill:#ff00cc" />
    <path
       d="m 27397,3893 c -3,-2 -35,-6 -72,-8 -37,-3 -73,-9 -80,-15 -6,-5 -27,-9 -46,-8 -19,0 -48,-7 -64,-16 -17,-9 -50,-28 -75,-42 -49,-27 -143,-121 -171,-169 -14,-26 -15,-34 -4,-48 7,-10 11,-26 8,-36 -3,-10 0,-22 6,-25 5,-4 8,-13 5,-21 -3,-8 6,-29 20,-48 14,-19 26,-37 26,-41 0,-3 11,-23 23,-44 13,-20 22,-42 20,-47 -2,-6 20,-37 48,-68 28,-32 49,-60 46,-63 -3,-3 10,-19 29,-36 19,-17 34,-36 34,-42 0,-7 11,-18 25,-24 14,-6 25,-16 25,-21 0,-5 14,-14 31,-20 19,-7 28,-15 23,-22 -4,-7 -3,-9 3,-6 5,3 25,-9 43,-28 19,-19 42,-35 52,-35 10,0 24,-10 33,-23 8,-13 36,-34 62,-47 27,-12 56,-32 65,-44 13,-15 20,-18 26,-9 5,7 8,-4 9,-27 2,-29 -2,-40 -13,-40 -8,0 -14,-10 -14,-24 0,-17 -8,-27 -28,-34 -16,-5 -36,-18 -47,-28 -10,-10 -30,-20 -44,-22 -14,-2 -28,-7 -31,-12 -10,-16 -104,-61 -135,-64 -16,-2 -47,-11 -69,-20 -21,-9 -51,-16 -66,-16 -16,0 -41,-6 -57,-14 -15,-8 -45,-23 -67,-33 -42,-20 -65,-48 -70,-85 -2,-12 -7,-31 -10,-40 -4,-9 -3,-25 3,-36 6,-11 8,-22 5,-25 -3,-3 6,-21 20,-40 14,-19 26,-41 26,-50 0,-11 8,-17 21,-17 15,0 19,-5 15,-15 -3,-8 0,-18 7,-22 7,-5 23,-23 36,-40 16,-24 30,-33 51,-33 15,0 30,-7 34,-15 8,-23 121,-21 130,2 6,14 9,15 16,3 7,-11 12,-11 23,-2 8,7 34,14 58,16 62,6 97,15 146,37 24,10 52,19 62,19 11,0 23,5 26,10 3,6 11,10 17,10 7,0 6,-6 -2,-15 -7,-8 -8,-15 -4,-15 5,0 15,9 22,21 9,14 19,18 33,14 13,-4 29,2 50,19 17,14 35,26 40,26 6,0 25,11 43,25 18,14 41,25 50,25 20,0 92,47 120,79 11,11 25,21 32,21 7,0 18,10 25,23 6,12 30,41 52,64 22,24 38,45 34,49 -3,4 2,23 13,43 16,32 26,98 19,126 -1,6 -3,21 -4,35 -2,31 -25,82 -42,93 -7,4 -13,13 -13,19 0,32 -181,228 -275,299 -55,42 -138,101 -165,119 -13,8 -35,25 -50,38 -15,12 -33,22 -39,22 -11,0 -51,49 -52,65 0,6 -8,18 -16,28 -15,16 -15,19 2,37 10,12 25,18 32,16 7,-3 15,-1 18,4 4,6 19,10 34,10 15,0 32,5 39,12 6,6 50,12 104,13 148,4 220,36 262,118 14,27 8,82 -11,96 -14,10 -69,85 -75,102 -9,23 -86,61 -133,64 -22,1 -40,3 -40,5 0,7 -291,21 -298,13 z"
       id="path502"
       style="fill:#ff00cc" />
  </g>
</svg>
